<?xml version='1.0' encoding='utf-8'?>
<COLLADA xmlns="http://www.collada.org/2005/11/COLLADASchema" version="1.4.1">
  <asset>
    <contributor>
      <author>Blender User</author>
      <authoring_tool>Blender 4.5.7 LTS commit date:2026-02-16, commit time:13:34, hash:a9874eeece8d</authoring_tool>
    </contributor>
    <created>2026-06-15T02:27:56</created>
    <modified>2026-06-16T00:38:35</modified>
    <unit name="meter" meter="1" />
    <up_axis>Z_UP</up_axis>
  </asset>
  <library_cameras>
    <camera id="Camera-camera" name="Camera">
      <optics>
        <technique_common>
          <perspective>
            <xfov sid="xfov">39.59775</xfov>
            <aspect_ratio>1.777778</aspect_ratio>
            <znear sid="znear">0.1</znear>
            <zfar sid="zfar">100</zfar>
          </perspective>
        </technique_common>
      </optics>
      <extra>
        <technique profile="blender">
          <shiftx sid="shiftx" type="float">0</shiftx>
          <shifty sid="shifty" type="float">0</shifty>
          <dof_distance sid="dof_distance" type="float">10</dof_distance>
        </technique>
      </extra>
    </camera>
  </library_cameras>
  <library_lights>
    <light id="Light-light" name="Light">
      <technique_common>
        <point>
          <color sid="color">1000 1000 1000</color>
          <constant_attenuation>1</constant_attenuation>
          <linear_attenuation>0</linear_attenuation>
          <quadratic_attenuation>0</quadratic_attenuation>
        </point>
      </technique_common>
      <extra>
        <technique profile="blender">
          <type sid="type" type="int">0</type>
          <flag sid="flag" type="int">0</flag>
          <mode sid="mode" type="int">2097153</mode>
          <red sid="red" type="float">1</red>
          <green sid="green" type="float">1</green>
          <blue sid="blue" type="float">1</blue>
          <energy sid="blender_energy" type="float">1000</energy>
          <spotsize sid="spotsize" type="float">75</spotsize>
          <spotblend sid="spotblend" type="float">0.15</spotblend>
          <clipsta sid="clipsta" type="float">0.04999995</clipsta>
          <clipend sid="clipend" type="float">40</clipend>
          <radius sid="radius" type="float">0.1</radius>
          <area_shape sid="area_shape" type="int">1</area_shape>
          <area_size sid="area_size" type="float">0.1</area_size>
          <area_sizey sid="area_sizey" type="float">0.1</area_sizey>
          <area_sizez sid="area_sizez" type="float">1</area_sizez>
        </technique>
      </extra>
    </light>
  </library_lights>
  <library_geometries>
    <geometry id="base_link-mesh" name="base_link">
      <mesh>
        <source id="base_link-mesh-positions">
          <float_array id="base_link-mesh-positions-array" count="528">0.0575 0 0.04999995 0.05675536 0.009223639 0.03999996 0.05675536 0.009223639 0.04999995 0.05454081 0.01820838 0.03999996 0.05454081 0.01820838 0.04999995 0.05091369 0.02672153 0.03999996 0.05091369 0.02672153 0.04999995 0.04596793 0.03454267 0.03999996 0.04596793 0.03454267 0.04999995 0.03983163 0.04146909 0.03999996 0.03983163 0.04146909 0.04999995 0.0326637 0.04732155 0.03999996 0.0326637 0.04732155 0.04999995 0.02464979 0.05194836 0.03999996 0.02464979 0.05194836 0.04999995 0.01599746 0.05522978 0.03999996 0.01599746 0.05522978 0.04999995 0.006930828 0.05708074 0.03999996 0.006930828 0.05708074 0.04999995 -0.002315282 0.05745333 0.03999996 -0.002315282 0.05745333 0.04999995 -0.01150143 0.05633795 0.03999996 -0.01150143 0.05633795 0.04999995 -0.02038973 0.05376338 0.03999996 -0.02038973 0.05376338 0.04999995 -0.02875 0.04979646 0.03999996 -0.02875 0.04979646 0.04999995 -0.03636556 0.04453974 0.03999996 -0.03636556 0.04453974 0.04999995 -0.04303932 0.0381295 0.03999996 -0.04303932 0.0381295 0.04999995 -0.0485984 0.03073173 0.03999996 -0.0485984 0.03073173 0.04999995 -0.05289876 0.02253806 0.03999996 -0.05289876 0.02253806 0.04999995 -0.0558291 0.01376062 0.03999996 -0.0558291 0.01376062 0.04999995 -0.0573135 0.00462681 0.03999996 -0.0573135 0.00462681 0.04999995 -0.0573135 -0.00462681 0.03999996 -0.0573135 -0.00462681 0.04999995 -0.0558291 -0.01376062 0.03999996 -0.0558291 -0.01376062 0.04999995 -0.05289876 -0.02253806 0.03999996 -0.05289876 -0.02253806 0.04999995 -0.0485984 -0.03073173 0.03999996 -0.0485984 -0.03073173 0.04999995 -0.04303932 -0.0381295 0.03999996 -0.04303932 -0.0381295 0.04999995 -0.03636556 -0.04453974 0.03999996 -0.03636556 -0.04453974 0.04999995 -0.02875 -0.04979646 0.03999996 -0.02875 -0.04979646 0.04999995 -0.02038973 -0.05376338 0.03999996 -0.02038973 -0.05376338 0.04999995 -0.01150143 -0.05633795 0.03999996 -0.01150143 -0.05633795 0.04999995 -0.002315282 -0.05745333 0.03999996 -0.002315282 -0.05745333 0.04999995 0.006930828 -0.05708074 0.03999996 0.006930828 -0.05708074 0.04999995 0.01599746 -0.05522978 0.03999996 0.01599746 -0.05522978 0.04999995 0.02464979 -0.05194836 0.03999996 0.02464979 -0.05194836 0.04999995 0.0326637 -0.04732155 0.03999996 0.0326637 -0.04732155 0.04999995 0.03983163 -0.04146909 0.03999996 0.03983163 -0.04146909 0.04999995 0.04596793 -0.03454267 0.03999996 0.04596793 -0.03454267 0.04999995 0.05091369 -0.02672153 0.03999996 0.05091369 -0.02672153 0.04999995 0.05454081 -0.01820838 0.03999996 0.05454081 -0.01820838 0.04999995 0.05675536 -0.009223639 0.03999996 0.05675536 -0.009223639 0.04999995 0.0575 0 0.03999996 -0.006306767 -0.003037154 0.03999996 -0.006999969 0 0.03999996 0.006306767 0.003037154 0.03999996 0.004364371 0.005472779 0.03999996 0.001557588 0.006824493 0.03999996 -0.004364371 -0.005472779 0.03999996 -0.001557588 -0.006824493 0.03999996 0.001557588 -0.006824493 0.03999996 -0.001557588 0.006824493 0.03999996 0.004364371 -0.005472779 0.03999996 -0.004364371 0.005472779 0.03999996 -0.006306767 0.003037154 0.03999996 0.006999969 0 0.03999996 0.006306767 -0.003037154 0.03999996 0.006306767 -0.003037154 0.04999995 0.006999969 0 0.04999995 0.006306767 0.003037154 0.04999995 0.0575 0 0.04999995 0.004364371 -0.005472779 0.04999995 0.001557588 -0.006824493 0.04999995 -0.001557588 -0.006824493 0.04999995 -0.004364371 -0.005472779 0.04999995 -0.006306767 -0.003037154 0.04999995 -0.006999969 0 0.04999995 -0.006306767 0.003037154 0.04999995 -0.004364371 0.005472779 0.04999995 0.001557588 0.006824493 0.04999995 -0.001557588 0.006824493 0.04999995 0.004364371 0.005472779 0.04999995 0.006999969 0 0.04999995 -0.06284576 0.05720162 0.00999999 -0.11 0.05720162 0.07483702 -0.06284576 -0.07279831 0.00999999 -0.11 -0.07279831 0.07483702 -0.112 0.05720162 0.07483702 -0.112 -0.07279831 0.07483702 -0.07125985 -0.07279831 0.004836976 -0.112 -0.07279831 0.004836976 -0.07207107 -0.07207107 0.004836976 -0.07423877 -0.06882679 0.004836976 -0.112 0.05720162 0.004836976 -0.07499998 0.05720162 0.004836976 -0.07499998 -0.06499999 0.004836976 -0.07499998 0.05720162 0.00999999 -0.07125985 -0.07279831 0.00999999 0.06499999 -0.07499998 0.00999999 0.06499999 -0.07499998 0 0.06882679 -0.07423877 0 0.06882679 -0.07423877 0.00999999 0.07207107 -0.07207107 0 0.07207107 -0.07207107 0.00999999 0.07423877 -0.06882679 0 0.07423877 -0.06882679 0.00999999 0.07499998 -0.06499999 0 0.07499998 -0.06499999 0.00999999 0.07499998 0.06499999 0.00999999 0.07499998 0.06499999 0 0.07423877 0.06882679 0 0.07423877 0.06882679 0.00999999 0.07207107 0.07207107 0 0.07207107 0.07207107 0.00999999 0.06882679 0.07423877 0 0.06882679 0.07423877 0.00999999 0.06499999 0.07499998 0 0.06499999 0.07499998 0.00999999 -0.06499999 0.07499998 0.00999999 -0.06499999 0.07499998 0 -0.06882679 0.07423877 0 -0.06882679 0.07423877 0.00999999 -0.07207107 0.07207107 0 -0.07207107 0.07207107 0.00999999 -0.07423877 0.06882679 0 -0.07423877 0.06882679 0.00999999 -0.07499998 0.06499999 0 -0.07499998 0.06499999 0.00999999 -0.07499998 -0.06499999 0 -0.07423877 -0.06882679 0 -0.07207107 -0.07207107 0 -0.06882679 -0.07423877 0 -0.06882679 -0.07423877 0.00999999 -0.06499999 -0.07499998 0 -0.06499999 -0.07499998 0.00999999 -0.03999996 0.02999997 0.03999996 0.03999996 0.02999997 0.03999996 -0.03999996 0.03999996 0.03999996 0.03999996 0.03999996 0.03999996 -0.03999996 0.02999997 0.00999999 -0.03999996 0.03999996 0.00999999 0.03999996 0.03999996 0.00999999 0.03999996 0.02999997 0.00999999 -0.03999996 -0.03999996 0.03999996 -0.03999996 -0.02999997 0.03999996 -0.03999996 -0.03999996 0.00999999 -0.03999996 -0.02999997 0.00999999 0.03999996 -0.02999997 0.03999996 0.03999996 -0.02999997 0.00999999 0.03999996 -0.03999996 0.03999996 0.03999996 -0.03999996 0.00999999</float_array>
          <technique_common>
            <accessor source="#base_link-mesh-positions-array" count="176" stride="3">
              <param name="X" type="float" />
              <param name="Y" type="float" />
              <param name="Z" type="float" />
            </accessor>
          </technique_common>
        </source>
        <source id="base_link-mesh-normals">
          <float_array id="base_link-mesh-normals-array" count="996">0.9967573 0.08046668 0 0.9709419 0.2393155 0 0.9709419 0.2393155 0 0.9199793 0.3919667 0 0.9199793 0.3919667 0 0.8451901 0.5344659 0 0.8451901 0.5344659 0 0.7485108 0.6631226 0 0.7485108 0.6631226 0 0.6324453 0.774605 0 0.6324453 0.774605 0 0.4999999 0.8660254 0 0.4999999 0.8660254 0 0.354605 0.9350162 0 0.354605 0.9350162 0 0.2000258 0.9797907 0 0.2000258 0.9797907 0 0.04026591 0.999189 0 0.04026591 0.999189 0 -0.1205366 0.9927089 0 -0.1205366 0.9927089 0 -0.2782176 0.9605181 0 -0.2782176 0.9605181 0 -0.4286924 0.9034505 0 -0.4286924 0.9034505 0 -0.5680648 0.8229839 0 -0.5680648 0.8229839 0 -0.6927246 0.7212023 0 -0.6927246 0.7212023 0 -0.7994427 0.6007424 0 -0.7994427 0.6007424 0 -0.8854561 0.464723 0 -0.8854561 0.464723 0 -0.9485364 0.3166683 0 -0.9485364 0.3166683 0 -0.9870503 0.1604112 0 -0.9870503 0.1604112 0 -1 0 0 -1 0 0 -0.9870503 -0.1604112 0 -0.9870503 -0.1604112 0 -0.9485364 -0.3166683 0 -0.9485364 -0.3166683 0 -0.8854561 -0.464723 0 -0.8854561 -0.464723 0 -0.7994427 -0.6007424 0 -0.7994427 -0.6007424 0 -0.6927246 -0.7212023 0 -0.6927246 -0.7212023 0 -0.5680648 -0.8229839 0 -0.5680648 -0.8229839 0 -0.4286924 -0.9034505 0 -0.4286924 -0.9034505 0 -0.2782176 -0.9605181 0 -0.2782176 -0.9605181 0 -0.1205366 -0.9927089 0 -0.1205366 -0.9927089 0 0.04026591 -0.999189 0 0.04026591 -0.999189 0 0.2000258 -0.9797907 0 0.2000258 -0.9797907 0 0.354605 -0.9350162 0 0.354605 -0.9350162 0 0.4999999 -0.8660254 0 0.4999999 -0.8660254 0 0.6324453 -0.774605 0 0.6324453 -0.774605 0 0.7485108 -0.6631226 0 0.7485108 -0.6631226 0 0.8451901 -0.5344659 0 0.8451901 -0.5344659 0 0.9199793 -0.3919667 0 0.9199793 -0.3919667 0 0.9709419 -0.2393155 0 0.9709419 -0.2393155 0 0.9967573 -0.08046668 0 0.9967573 -0.08046668 0 0.9967573 0.08046668 0 0 0 -1 0 0 -1 0 0 -1 0 0 -1 0 0 -1 0 0 -1 0 0 -1 0 0 -1 0 0 -1 0 0 -1 0 0 -1 0 0 -1 0 0 -1 0 0 -1 0 0 -1 0 0 -1 0 0 -1 0 0 -1 0 0 -1 0 0 -1 0 0 -1 0 0 -1 0 0 -1 0 0 -1 0 0 -1 0 0 -1 0 0 -1 0 0 -1 0 0 -1 0 0 -1 0 0 -1 0 0 -1 0 0 -1 0 0 -1 0 0 -1 0 0 -1 0 0 -1 0 0 -1 0 0 -1 0 0 -1 0 0 -1 0 0 -1 0 0 -1 0 0 -1 0 0 -1 0 0 -1 0 0 -1 0 0 -1 0 0 -1 0 0 -1 0 0 -1 0 0 -1 0 0 -1 0 0 1 0 0 1 0 0 1 0 0 1 0 0 1 0 0 1 0 0 1 0 0 1 0 0 1 0 0 1 0 0 1 0 0 1 0 0 1 0 0 1 0 0 1 0 0 1 0 0 1 0 0 1 0 0 1 0 0 1 0 0 1 0 0 1 0 0 1 0 0 1 0 0 1 0 0 1 0 0 1 0 0 1 0 0 1 0 0 1 0 0 1 0 0 1 0 0 1 0 0 1 0 0 1 0 0 1 0 0 1 0 0 1 0 0 1 0 0 1 0 0 1 0 0 1 0 0 1 0 0 1 0 0 1 0 0 1 0 0 1 0 0 1 0 0 1 0 0 1 0 0 1 0 0 1 0 0 1 -0.9749279 -0.222521 0 -0.9749279 -0.222521 0 -0.7818315 -0.6234897 0 -0.7818315 -0.6234897 0 -0.4338837 -0.9009689 0 -0.4338837 -0.9009689 0 0 -1 0 0 -1 0 0.4338837 -0.9009689 0 0.4338837 -0.9009689 0 0.7818315 -0.6234897 0 0.7818315 -0.6234897 0 0.9749279 -0.222521 0 0.9749279 -0.222521 0 0.9749279 0.222521 0 0.9749279 0.222521 0 0.7818315 0.6234897 0 0.7818315 0.6234897 0 0.4338837 0.9009689 0 0.4338837 0.9009689 0 0 1 0 0 1 0 -0.4338837 0.9009689 0 -0.4338837 0.9009689 0 -0.7818315 0.6234897 0 -0.7818315 0.6234897 0 -0.9749279 0.222521 0 -0.9749279 0.222521 0 0.8087361 0 0.5881717 0.8087361 0 0.5881717 0 0 1 0 0 1 0 0 -1 0 0 -1 0 0 -1 0 0 -1 0 0 -1 -1 0 0 -1 0 0 0 1 0 0 1 0 0 1 0 0 1 0 0 -1 0 0 -1 0 0 -1 0 0 -1 0 0.1950919 -0.980785 0 0.1950919 -0.980785 0 0.5555693 -0.8314702 0 0.5555693 -0.8314702 0 0.8314702 -0.5555693 0 0.8314702 -0.5555693 0 0.980785 -0.1950919 0 0.980785 -0.1950919 0 1 0 0 1 0 0 0.980785 0.1950919 0 0.980785 0.1950919 0 0.8314702 0.5555693 0 0.8314702 0.5555693 0 0.5555693 0.8314702 0 0.5555693 0.8314702 0 0.1950919 0.980785 0 0.1950919 0.980785 0 0 1 0 0 1 0 -0.1950919 0.980785 0 -0.1950919 0.980785 0 -0.5555693 0.8314702 0 -0.5555693 0.8314702 0 -0.8314702 0.5555693 0 -0.8314702 0.5555693 0 -0.980785 0.1950919 0 -0.980785 0.1950919 0 -1 0 0 -1 0 0 -1 0 0 -1 0 0 -0.980785 -0.1950919 0 -0.980785 -0.1950919 0 -0.8314703 -0.5555694 0 -0.8314703 -0.5555694 0 -0.667538 -0.7445757 0 -0.5552879 -0.831049 -0.03182655 -0.5094509 -0.8604997 0 -0.5094509 -0.8604998 0 -0.1950919 -0.980785 0 -0.1950919 -0.980785 0 0 -1 0 0 -1 0 0 0 1 0 0 1 0 0 1 0 0 1 0 0 1 0 0 1 0 0 1 0 0 1 0 0 1 0 0 1 0 0 1 0 0 1 0 0 1 0 0 1 0 0 1 0 0 1 0 0 1 0 0 1 0 0 1 0 0 -1 0 0 -1 0 0 -1 0 0 -1 0 0 -1 0 0 -1 0 0 -1 0 0 -1 0 0 -1 0 0 -1 0 0 -1 0 0 -1 0 0 -1 0 0 -1 0 0 -1 0 0 -1 0 0 -1 0 0 -1 0 0 1 0 0 1 -1 0 0 -1 0 0 0 1 0 0 1 0 1 0 0 1 0 0 0 -1 0 0 -1 0 -1 0 0 -1 0 0 0 1 0 0 1 0 1 0 0 1 0 0 0 -1 0 0 -1 0 0 0 1 0 0 1</float_array>
          <technique_common>
            <accessor source="#base_link-mesh-normals-array" count="332" stride="3">
              <param name="X" type="float" />
              <param name="Y" type="float" />
              <param name="Z" type="float" />
            </accessor>
          </technique_common>
        </source>
        <vertices id="base_link-mesh-vertices">
          <input semantic="POSITION" source="#base_link-mesh-positions" />
        </vertices>
        <triangles count="332">
          <input semantic="VERTEX" source="#base_link-mesh-vertices" offset="0" />
          <input semantic="NORMAL" source="#base_link-mesh-normals" offset="1" />
          <p>0 0 1 0 2 0 2 1 1 1 3 1 2 2 3 2 4 2 4 3 3 3 5 3 4 4 5 4 6 4 6 5 5 5 7 5 6 6 7 6 8 6 8 7 7 7 9 7 8 8 9 8 10 8 10 9 9 9 11 9 10 10 11 10 12 10 12 11 11 11 13 11 12 12 13 12 14 12 14 13 13 13 15 13 14 14 15 14 16 14 16 15 15 15 17 15 16 16 17 16 18 16 18 17 17 17 19 17 18 18 19 18 20 18 20 19 19 19 21 19 20 20 21 20 22 20 22 21 21 21 23 21 22 22 23 22 24 22 24 23 23 23 25 23 24 24 25 24 26 24 26 25 25 25 27 25 26 26 27 26 28 26 28 27 27 27 29 27 28 28 29 28 30 28 30 29 29 29 31 29 30 30 31 30 32 30 32 31 31 31 33 31 32 32 33 32 34 32 34 33 33 33 35 33 34 34 35 34 36 34 36 35 35 35 37 35 36 36 37 36 38 36 38 37 37 37 39 37 38 38 39 38 40 38 40 39 39 39 41 39 40 40 41 40 42 40 42 41 41 41 43 41 42 42 43 42 44 42 44 43 43 43 45 43 44 44 45 44 46 44 46 45 45 45 47 45 46 46 47 46 48 46 48 47 47 47 49 47 48 48 49 48 50 48 50 49 49 49 51 49 50 50 51 50 52 50 52 51 51 51 53 51 52 52 53 52 54 52 54 53 53 53 55 53 54 54 55 54 56 54 56 55 55 55 57 55 56 56 57 56 58 56 58 57 57 57 59 57 58 58 59 58 60 58 60 59 59 59 61 59 60 60 61 60 62 60 62 61 61 61 63 61 62 62 63 62 64 62 64 63 63 63 65 63 64 64 65 64 66 64 66 65 65 65 67 65 66 66 67 66 68 66 68 67 67 67 69 67 68 68 69 68 70 68 70 69 69 69 71 69 70 70 71 70 72 70 72 71 71 71 73 71 72 72 73 72 74 72 74 73 73 73 75 73 74 74 75 74 76 74 76 75 75 75 77 75 76 76 77 76 0 76 0 77 77 77 1 77 78 78 43 78 41 78 78 79 41 79 79 79 5 80 80 80 7 80 7 81 80 81 81 81 7 82 81 82 9 82 9 83 81 83 11 83 11 84 81 84 13 84 13 85 81 85 82 85 13 86 82 86 15 86 51 87 49 87 83 87 83 88 49 88 47 88 83 89 47 89 78 89 78 90 47 90 45 90 78 91 45 91 43 91 51 92 83 92 53 92 53 93 83 93 84 93 53 94 84 94 55 94 55 95 84 95 57 95 57 96 84 96 85 96 57 97 85 97 59 97 86 98 19 98 82 98 82 99 19 99 17 99 82 100 17 100 15 100 67 101 65 101 87 101 87 102 65 102 63 102 87 103 63 103 85 103 85 104 63 104 61 104 85 105 61 105 59 105 27 106 25 106 88 106 88 107 25 107 23 107 88 108 23 108 86 108 86 109 23 109 21 109 86 110 21 110 19 110 35 111 89 111 37 111 37 112 89 112 79 112 37 113 79 113 39 113 39 114 79 114 41 114 5 115 3 115 80 115 80 116 3 116 1 116 80 117 1 117 90 117 35 118 33 118 89 118 89 119 33 119 31 119 89 120 31 120 88 120 88 121 31 121 29 121 88 122 29 122 27 122 67 123 87 123 69 123 69 124 87 124 91 124 69 125 91 125 71 125 1 126 77 126 90 126 90 127 77 127 75 127 90 128 75 128 91 128 91 129 75 129 73 129 91 130 73 130 71 130 72 131 74 131 92 131 92 132 74 132 76 132 92 133 76 133 93 133 4 134 94 134 2 134 2 135 94 135 93 135 2 136 93 136 95 136 95 137 93 137 76 137 72 138 92 138 70 138 70 139 92 139 96 139 70 140 96 140 68 140 60 141 62 141 97 141 97 142 62 142 64 142 97 143 64 143 96 143 96 144 64 144 66 144 96 145 66 145 68 145 60 146 97 146 58 146 58 147 97 147 98 147 58 148 98 148 56 148 56 149 98 149 54 149 54 150 98 150 99 150 54 151 99 151 52 151 44 152 100 152 42 152 42 153 100 153 101 153 42 154 101 154 40 154 44 155 46 155 100 155 100 156 46 156 48 156 100 157 48 157 99 157 99 158 48 158 50 158 99 159 50 159 52 159 40 160 101 160 38 160 38 161 101 161 102 161 38 162 102 162 36 162 28 163 30 163 103 163 103 164 30 164 32 164 103 165 32 165 102 165 102 166 32 166 34 166 102 167 34 167 36 167 16 168 18 168 104 168 104 169 18 169 20 169 104 170 20 170 105 170 16 171 104 171 14 171 14 172 104 172 106 172 14 173 106 173 12 173 20 174 22 174 105 174 105 175 22 175 24 175 105 176 24 176 103 176 103 177 24 177 26 177 103 178 26 178 28 178 4 179 6 179 94 179 94 180 6 180 8 180 94 181 8 181 106 181 106 182 8 182 10 182 106 183 10 183 12 183 90 184 107 184 80 184 80 185 107 185 94 185 80 186 94 186 81 186 81 187 94 187 106 187 81 188 106 188 82 188 82 189 106 189 104 189 82 190 104 190 86 190 86 191 104 191 105 191 86 192 105 192 88 192 88 193 105 193 103 193 88 194 103 194 89 194 89 195 103 195 102 195 89 196 102 196 79 196 79 197 102 197 101 197 79 198 101 198 78 198 78 199 101 199 100 199 78 200 100 200 83 200 83 201 100 201 99 201 83 202 99 202 84 202 84 203 99 203 98 203 84 204 98 204 85 204 85 205 98 205 97 205 85 206 97 206 87 206 87 207 97 207 96 207 87 208 96 208 91 208 91 209 96 209 92 209 91 210 92 210 90 210 90 211 92 211 107 211 108 212 109 212 110 212 110 213 109 213 111 213 109 214 112 214 111 214 111 215 112 215 113 215 114 216 115 216 116 216 116 217 115 217 117 217 118 218 119 218 115 218 115 219 119 219 120 219 115 220 120 220 117 220 112 221 118 221 113 221 113 222 118 222 115 222 119 223 118 223 121 223 121 224 118 224 112 224 121 225 112 225 108 225 108 226 112 226 109 226 110 227 111 227 122 227 122 228 111 228 113 228 122 229 113 229 114 229 114 230 113 230 115 230 123 231 124 231 125 231 123 232 125 232 126 232 126 233 125 233 127 233 126 234 127 234 128 234 128 235 127 235 129 235 128 236 129 236 130 236 130 237 129 237 131 237 130 238 131 238 132 238 133 239 132 239 134 239 134 240 132 240 131 240 133 241 134 241 135 241 133 242 135 242 136 242 136 243 135 243 137 243 136 244 137 244 138 244 138 245 137 245 139 245 138 246 139 246 140 246 140 247 139 247 141 247 140 248 141 248 142 248 143 249 142 249 144 249 144 250 142 250 141 250 143 251 144 251 145 251 143 252 145 252 146 252 146 253 145 253 147 253 146 254 147 254 148 254 148 255 147 255 149 255 148 256 149 256 150 256 150 257 149 257 151 257 150 258 151 258 152 258 121 259 152 259 119 259 119 260 152 260 151 260 119 261 151 261 120 261 120 262 151 262 153 262 120 263 153 263 154 263 120 264 154 264 117 264 117 265 154 265 155 265 117 266 155 266 116 266 116 267 155 267 114 267 114 268 155 268 156 268 114 269 156 269 122 269 122 270 156 270 157 270 157 271 156 271 158 271 157 272 158 272 159 272 123 273 159 273 124 273 124 274 159 274 158 274 110 275 122 275 157 275 152 276 121 276 108 276 110 277 132 277 108 277 108 278 132 278 133 278 152 279 108 279 150 279 150 280 108 280 146 280 150 281 146 281 148 281 128 282 130 282 126 282 126 283 130 283 132 283 126 284 132 284 123 284 123 285 132 285 110 285 123 286 110 286 159 286 159 287 110 287 157 287 133 288 136 288 138 288 138 289 140 289 133 289 133 290 140 290 142 290 133 291 142 291 108 291 108 292 142 292 143 292 108 293 143 293 146 293 144 294 134 294 158 294 158 295 134 295 131 295 158 296 131 296 124 296 158 297 156 297 155 297 147 298 145 298 149 298 149 299 145 299 144 299 129 300 127 300 131 300 131 301 127 301 125 301 131 302 125 302 124 302 155 303 154 303 158 303 158 304 154 304 153 304 158 305 153 305 144 305 144 306 153 306 151 306 144 307 151 307 149 307 137 308 135 308 139 308 139 309 135 309 134 309 139 310 134 310 141 310 141 311 134 311 144 311 160 312 161 312 162 312 162 313 161 313 163 313 160 314 162 314 164 314 164 315 162 315 165 315 162 316 163 316 165 316 165 317 163 317 166 317 163 318 161 318 166 318 166 319 161 319 167 319 161 320 160 320 167 320 167 321 160 321 164 321 168 322 169 322 170 322 170 323 169 323 171 323 169 324 172 324 171 324 171 325 172 325 173 325 172 326 174 326 173 326 173 327 174 327 175 327 174 328 168 328 175 328 175 329 168 329 170 329 172 330 169 330 174 330 174 331 169 331 168 331</p>
        </triangles>
      </mesh>
    </geometry>
  </library_geometries>
  <library_visual_scenes>
    <visual_scene id="Scene" name="Scene">
      <node id="base_link" name="base_link" type="NODE">
        <matrix sid="transform">1 0 0 0 0 1 0 0 0 0 1 0 0 0 0 1</matrix>
        <instance_geometry url="#base_link-mesh" name="base_link" />
      </node>
      </visual_scene>
  </library_visual_scenes>
  <scene>
    <instance_visual_scene url="#Scene" />
  </scene>
</COLLADA>