<?xml version='1.0' encoding='utf-8'?>
<COLLADA xmlns="http://www.collada.org/2005/11/COLLADASchema" version="1.4.1">
  <asset>
    <contributor>
      <author>Blender User</author>
      <authoring_tool>Blender 4.5.7 LTS commit date:2026-02-16, commit time:13:34, hash:a9874eeece8d</authoring_tool>
    </contributor>
    <created>2026-06-15T02:28:17</created>
    <modified>2026-06-16T00:38:35</modified>
    <unit name="meter" meter="1" />
    <up_axis>Z_UP</up_axis>
  </asset>
  <library_cameras>
    <camera id="Camera-camera" name="Camera">
      <optics>
        <technique_common>
          <perspective>
            <xfov sid="xfov">39.59775</xfov>
            <aspect_ratio>1.777778</aspect_ratio>
            <znear sid="znear">0.1</znear>
            <zfar sid="zfar">100</zfar>
          </perspective>
        </technique_common>
      </optics>
      <extra>
        <technique profile="blender">
          <shiftx sid="shiftx" type="float">0</shiftx>
          <shifty sid="shifty" type="float">0</shifty>
          <dof_distance sid="dof_distance" type="float">10</dof_distance>
        </technique>
      </extra>
    </camera>
  </library_cameras>
  <library_lights>
    <light id="Light-light" name="Light">
      <technique_common>
        <point>
          <color sid="color">1000 1000 1000</color>
          <constant_attenuation>1</constant_attenuation>
          <linear_attenuation>0</linear_attenuation>
          <quadratic_attenuation>0</quadratic_attenuation>
        </point>
      </technique_common>
      <extra>
        <technique profile="blender">
          <type sid="type" type="int">0</type>
          <flag sid="flag" type="int">0</flag>
          <mode sid="mode" type="int">2097153</mode>
          <red sid="red" type="float">1</red>
          <green sid="green" type="float">1</green>
          <blue sid="blue" type="float">1</blue>
          <energy sid="blender_energy" type="float">1000</energy>
          <spotsize sid="spotsize" type="float">75</spotsize>
          <spotblend sid="spotblend" type="float">0.15</spotblend>
          <clipsta sid="clipsta" type="float">0.04999995</clipsta>
          <clipend sid="clipend" type="float">40</clipend>
          <radius sid="radius" type="float">0.1</radius>
          <area_shape sid="area_shape" type="int">1</area_shape>
          <area_size sid="area_size" type="float">0.1</area_size>
          <area_sizey sid="area_sizey" type="float">0.1</area_sizey>
          <area_sizez sid="area_sizez" type="float">1</area_sizez>
        </technique>
      </extra>
    </light>
  </library_lights>
  <library_geometries>
    <geometry id="gripper_l-mesh" name="gripper_l">
      <mesh>
        <source id="gripper_l-mesh-positions">
          <float_array id="gripper_l-mesh-positions-array" count="1986">0.01697117 0.005707323 0.002999961 0.0169354 0.00556457 0.002999961 0.01799994 0.003999948 0.002999961 0.006177067 0.005292892 0.002999961 0.006114125 0.00542593 0.002999961 0.005499958 0.003999948 0.002999961 0.006064534 0.00556457 0.002999961 0.006028771 0.005707323 0.002999961 0.01699274 0.005852937 0.002999961 0.00692594 0.004614174 0.002999961 0.006792902 0.004677116 0.002999961 0.01688581 0.00542593 0.002999961 0.01682287 0.005292892 0.002999961 0.01674717 0.00516659 0.002999961 0.0088858 0.00542593 0.002999961 0.008822858 0.005292892 0.002999961 0.008560657 0.004939317 0.002999961 0.008451581 0.004840433 0.002999961 0.008333325 0.004752755 0.002999961 0.006028771 0.006292581 0.002999961 0.006064534 0.006435394 0.002999961 0.005499958 0.008499979 0.002999961 0.006252765 0.006833314 0.002999961 0.006340444 0.00695157 0.002999961 0.008999943 0.005999982 0.002999961 0.01479285 0.004677116 0.002999961 0.01466661 0.004752755 0.002999961 0.01466661 0.007247149 0.002999961 0.01454836 0.007159471 0.002999961 0.01443934 0.007060647 0.002999961 0.008207082 0.004677116 0.002999961 0.008073985 0.004614174 0.002999961 0.007935404 0.004564583 0.002999961 0.007352948 0.004507184 0.002999961 0.007207334 0.00452882 0.002999961 0.007064521 0.004564583 0.002999961 0.006439328 0.007060647 0.002999961 0.006548404 0.007159471 0.002999961 0.0066666 0.007247149 0.002999961 0.006792902 0.007322847 0.002999961 0.00692594 0.00738579 0.002999961 0.007064521 0.007435381 0.002999961 0.01520735 0.00452882 0.002999961 0.01506453 0.004564583 0.002999961 0.01492595 0.004614174 0.002999961 0.007207334 0.007471144 0.002999961 0.007352948 0.007492721 0.002999961 0.007499992 0.007499992 0.002999961 0.00874716 0.00516659 0.002999961 0.008659482 0.005048394 0.002999961 0.007792592 0.00452882 0.002999961 0.007646977 0.004507184 0.002999961 0.007499992 0.004499971 0.002999961 0.0066666 0.004752755 0.002999961 0.006548404 0.004840433 0.002999961 0.006439328 0.004939317 0.002999961 0.006340444 0.005048394 0.002999961 0.006252765 0.00516659 0.002999961 0.006114125 0.006573975 0.002999961 0.006177067 0.006707072 0.002999961 0.01479285 0.007322847 0.002999961 0.01492595 0.00738579 0.002999961 0.01506453 0.007435381 0.002999961 0.01564699 0.007492721 0.002999961 0.0157926 0.007471144 0.002999961 0.01799994 0.008499979 0.002999961 0.01656061 0.007060647 0.002999961 0.01665949 0.00695157 0.002999961 0.01699274 0.006146967 0.002999961 0.01699995 0.005999982 0.002999961 0.01665949 0.005048394 0.002999961 0.01656061 0.004939317 0.002999961 0.01645153 0.004840433 0.002999961 0.008073985 0.00738579 0.002999961 0.008207082 0.007322847 0.002999961 0.008333325 0.007247149 0.002999961 0.008451581 0.007159471 0.002999961 0.008560657 0.007060647 0.002999961 0.008659482 0.00695157 0.002999961 0.01434046 0.00695157 0.002999961 0.01593542 0.007435381 0.002999961 0.016074 0.00738579 0.002999961 0.01620709 0.007322847 0.002999961 0.01633334 0.007247149 0.002999961 0.01645153 0.007159471 0.002999961 0.01674717 0.006833314 0.002999961 0.01682287 0.006707072 0.002999961 0.01688581 0.006573975 0.002999961 0.0169354 0.006435394 0.002999961 0.01697117 0.006292581 0.002999961 0.01633334 0.004752755 0.002999961 0.01620709 0.004677116 0.002999961 0.016074 0.004614174 0.002999961 0.006007194 0.005852937 0.002999961 0.005999982 0.005999982 0.002999961 0.006007194 0.006146967 0.002999961 0.007646977 0.007492721 0.002999961 0.007792592 0.007471144 0.002999961 0.007935404 0.007435381 0.002999961 0.01454836 0.004840433 0.002999961 0.01443934 0.004939317 0.002999961 0.01434046 0.005048394 0.002999961 0.01593542 0.004564583 0.002999961 0.0157926 0.00452882 0.002999961 0.01564699 0.004507184 0.002999961 0.01402878 0.005707323 0.002999961 0.01406455 0.00556457 0.002999961 0.01411414 0.00542593 0.002999961 0.01520735 0.007471144 0.002999961 0.01535296 0.007492721 0.002999961 0.01549994 0.007499992 0.002999961 0.01425278 0.00516659 0.002999961 0.01417708 0.005292892 0.002999961 0.008822858 0.006707072 0.002999961 0.0088858 0.006573975 0.002999961 0.01402878 0.006292581 0.002999961 0.01406455 0.006435394 0.002999961 0.01411414 0.006573975 0.002999961 0.01417708 0.006707072 0.002999961 0.01425278 0.006833314 0.002999961 0.01549994 0.004499971 0.002999961 0.01535296 0.004507184 0.002999961 0.00874716 0.006833314 0.002999961 0.008992731 0.005852937 0.002999961 0.008971154 0.005707323 0.002999961 0.008935391 0.00556457 0.002999961 0.008935391 0.006435394 0.002999961 0.008971154 0.006292581 0.002999961 0.008992731 0.006146967 0.002999961 0.01400721 0.005852937 0.002999961 0.01399999 0.005999982 0.002999961 0.01400721 0.006146967 0.002999961 0.01699274 -0.005852937 0.002999961 0.01699995 -0.005999982 0.002999961 0.01799994 -0.003999948 0.002999961 0.01697117 -0.006292581 0.002999961 0.0169354 -0.006435394 0.002999961 0.01799994 -0.008499979 0.002999961 0.006177067 -0.006707072 0.002999961 0.006114125 -0.006573975 0.002999961 0.005499958 -0.008499979 0.002999961 0.006064534 -0.006435394 0.002999961 0.006028771 -0.006292581 0.002999961 0.008560657 -0.007060647 0.002999961 0.008451581 -0.007159471 0.002999961 0.00692594 -0.00738579 0.002999961 0.006792902 -0.007322847 0.002999961 0.01688581 -0.006573975 0.002999961 0.01682287 -0.006707072 0.002999961 0.01674717 -0.006833314 0.002999961 0.007499992 -0.007499992 0.002999961 0.007352948 -0.007492721 0.002999961 0.006028771 -0.005707323 0.002999961 0.006064534 -0.00556457 0.002999961 0.005499958 -0.003999948 0.002999961 0.01492595 -0.00738579 0.002999961 0.01479285 -0.007322847 0.002999961 0.008999943 -0.005999982 0.002999961 0.01466661 -0.007247149 0.002999961 0.01466661 -0.004752755 0.002999961 0.01454836 -0.004840433 0.002999961 0.01443934 -0.004939317 0.002999961 0.01699274 -0.006146967 0.002999961 0.008333325 -0.007247149 0.002999961 0.008207082 -0.007322847 0.002999961 0.008073985 -0.00738579 0.002999961 0.007207334 -0.007471144 0.002999961 0.007064521 -0.007435381 0.002999961 0.006252765 -0.00516659 0.002999961 0.006340444 -0.005048394 0.002999961 0.006439328 -0.004939317 0.002999961 0.006548404 -0.004840433 0.002999961 0.0066666 -0.004752755 0.002999961 0.006792902 -0.004677116 0.002999961 0.00692594 -0.004614174 0.002999961 0.007064521 -0.004564583 0.002999961 0.007207334 -0.00452882 0.002999961 0.007352948 -0.004507184 0.002999961 0.007935404 -0.004564583 0.002999961 0.008073985 -0.004614174 0.002999961 0.008822858 -0.006707072 0.002999961 0.00874716 -0.006833314 0.002999961 0.008659482 -0.00695157 0.002999961 0.007935404 -0.007435381 0.002999961 0.007792592 -0.007471144 0.002999961 0.007646977 -0.007492721 0.002999961 0.0066666 -0.007247149 0.002999961 0.006548404 -0.007159471 0.002999961 0.006439328 -0.007060647 0.002999961 0.006340444 -0.00695157 0.002999961 0.006252765 -0.006833314 0.002999961 0.006114125 -0.00542593 0.002999961 0.006177067 -0.005292892 0.002999961 0.01479285 -0.004677116 0.002999961 0.01492595 -0.004614174 0.002999961 0.01506453 -0.004564583 0.002999961 0.01564699 -0.004507184 0.002999961 0.0157926 -0.00452882 0.002999961 0.01656061 -0.004939317 0.002999961 0.01665949 -0.005048394 0.002999961 0.01665949 -0.00695157 0.002999961 0.01656061 -0.007060647 0.002999961 0.01645153 -0.007159471 0.002999961 0.006007194 -0.006146967 0.002999961 0.005999982 -0.005999982 0.002999961 0.006007194 -0.005852937 0.002999961 0.007499992 -0.004499971 0.002999961 0.007646977 -0.004507184 0.002999961 0.007792592 -0.00452882 0.002999961 0.008207082 -0.004677116 0.002999961 0.008333325 -0.004752755 0.002999961 0.008451581 -0.004840433 0.002999961 0.008560657 -0.004939317 0.002999961 0.008659482 -0.005048394 0.002999961 0.01434046 -0.005048394 0.002999961 0.01593542 -0.004564583 0.002999961 0.016074 -0.004614174 0.002999961 0.01620709 -0.004677116 0.002999961 0.01633334 -0.004752755 0.002999961 0.01645153 -0.004840433 0.002999961 0.01674717 -0.00516659 0.002999961 0.01682287 -0.005292892 0.002999961 0.01688581 -0.00542593 0.002999961 0.0169354 -0.00556457 0.002999961 0.01697117 -0.005707323 0.002999961 0.01633334 -0.007247149 0.002999961 0.01620709 -0.007322847 0.002999961 0.016074 -0.00738579 0.002999961 0.01454836 -0.007159471 0.002999961 0.01443934 -0.007060647 0.002999961 0.01434046 -0.00695157 0.002999961 0.01593542 -0.007435381 0.002999961 0.0157926 -0.007471144 0.002999961 0.01564699 -0.007492721 0.002999961 0.008992731 -0.006146967 0.002999961 0.01520735 -0.007471144 0.002999961 0.01506453 -0.007435381 0.002999961 0.01402878 -0.006292581 0.002999961 0.01406455 -0.006435394 0.002999961 0.01411414 -0.006573975 0.002999961 0.01520735 -0.00452882 0.002999961 0.01535296 -0.004507184 0.002999961 0.01549994 -0.004499971 0.002999961 0.01425278 -0.006833314 0.002999961 0.01417708 -0.006707072 0.002999961 0.008822858 -0.005292892 0.002999961 0.0088858 -0.00542593 0.002999961 0.01402878 -0.005707323 0.002999961 0.01406455 -0.00556457 0.002999961 0.01411414 -0.00542593 0.002999961 0.01417708 -0.005292892 0.002999961 0.01425278 -0.00516659 0.002999961 0.01549994 -0.007499992 0.002999961 0.01535296 -0.007492721 0.002999961 0.00874716 -0.00516659 0.002999961 0.008971154 -0.006292581 0.002999961 0.008935391 -0.006435394 0.002999961 0.0088858 -0.006573975 0.002999961 0.008935391 -0.00556457 0.002999961 0.008971154 -0.005707323 0.002999961 0.008992731 -0.005852937 0.002999961 0.01400721 -0.006146967 0.002999961 0.01399999 -0.005999982 0.002999961 0.01400721 -0.005852937 0.002999961 0 -0.008499979 0 0.006007194 -0.006146967 0 0.006028771 -0.006292581 0 0.006064534 0.00556457 0 0 0.008499979 0 0.006028771 0.005707323 0 0.006007194 0.005852937 0 0.01466661 0.007247149 0 0.01454836 0.007159471 0 0.008073985 0.004614174 0 0.01479285 0.007322847 0 0.01443934 0.007060647 0 0.01434046 0.00695157 0 0.01425278 0.006833314 0 0.006064534 -0.006435394 0 0.006114125 -0.006573975 0 0.006177067 -0.006707072 0 0.008073985 -0.00738579 0 0.008207082 -0.007322847 0 0.01406455 -0.00556457 0 0.008333325 -0.007247149 0 0.008451581 -0.007159471 0 0.007352948 -0.004507184 0 0.006252765 0.00516659 0 0.007499992 -0.004499971 0 0.007646977 -0.004507184 0 0.00692594 -0.004614174 0 0.006792902 -0.004677116 0 0.0066666 -0.004752755 0 0.006548404 -0.004840433 0 0.006439328 -0.004939317 0 0.006340444 -0.005048394 0 0.006252765 -0.00516659 0 0.01417708 0.006707072 0 0.01411414 0.006573975 0 0.01406455 0.006435394 0 0.008560657 -0.007060647 0 0.008659482 -0.00695157 0 0.00874716 -0.006833314 0 0.006028771 -0.005707323 0 0.006007194 -0.005852937 0 0.005999982 -0.005999982 0 0.006252765 -0.006833314 0 0.006340444 -0.00695157 0 0.006439328 -0.007060647 0 0.006548404 -0.007159471 0 0.0066666 -0.007247149 0 0.006792902 -0.007322847 0 0.0066666 0.004752755 0 0.006792902 0.004677116 0 0.01443934 -0.004939317 0 0.008822858 -0.006707072 0 0.0088858 -0.006573975 0 0.008935391 -0.006435394 0 0.008999943 -0.005999982 0 0.008992731 -0.005852937 0 0.007064521 -0.004564583 0 0.007207334 -0.00452882 0 0.006114125 0.00542593 0 0.006177067 0.005292892 0 0.006177067 -0.005292892 0 0.006114125 -0.00542593 0 0.006064534 -0.00556457 0 0.01479285 -0.004677116 0 0.01466661 -0.004752755 0 0.007792592 0.00452882 0 0.01434046 -0.005048394 0 0.01425278 -0.00516659 0 0.006340444 0.005048394 0 0.01417708 -0.005292892 0 0.008451581 -0.004840433 0 0.008333325 -0.004752755 0 0.008207082 -0.004677116 0 0.008073985 -0.004614174 0 0.00692594 -0.00738579 0 0.007064521 -0.007435381 0 0.007207334 -0.007471144 0 0.01402878 -0.005707323 0 0.01400721 -0.005852937 0 0.007935404 -0.007435381 0 0.01399999 -0.005999982 0 0.007792592 -0.007471144 0 0.01400721 -0.006146967 0 0.01402878 -0.006292581 0 0.01479285 0.004677116 0 0.01492595 0.004614174 0 0.01697117 -0.005707323 0 0.00692594 0.00738579 0 0.006792902 0.007322847 0 0.0066666 0.007247149 0 0.006548404 0.007159471 0 0.006439328 0.007060647 0 0.006340444 0.00695157 0 0.006252765 0.006833314 0 0.006177067 0.006707072 0 0.006548404 0.004840433 0 0.00692594 0.004614174 0 0.007064521 0.004564583 0 0.007207334 0.00452882 0 0.007352948 0.004507184 0 0.007499992 0.004499971 0 0.007646977 0.004507184 0 0.0088858 -0.00542593 0 0.008822858 -0.005292892 0 0.01411414 -0.00542593 0 0.008560657 -0.004939317 0 0.007935404 -0.004564583 0 0.007792592 -0.00452882 0 0.007352948 -0.007492721 0 0.007499992 -0.007499992 0 0.007646977 -0.007492721 0 0.01466661 0.004752755 0 0.006114125 0.006573975 0 0.006064534 0.006435394 0 0.006028771 0.006292581 0 0.006007194 0.006146967 0 0.005999982 0.005999982 0 0.006439328 0.004939317 0 0.01454836 -0.004840433 0 0.008971154 -0.006292581 0 0.008992731 -0.006146967 0 0.008971154 -0.005707323 0 0.008935391 -0.00556457 0 0.00874716 -0.00516659 0 0.008659482 -0.005048394 0 0.0169354 -0.00556457 0 0.01688581 -0.00542593 0 0.01443934 0.004939317 0 0.01682287 -0.005292892 0 0.01674717 -0.00516659 0 0.01665949 -0.005048394 0 0.01656061 -0.004939317 0 0.01645153 -0.004840433 0 0.01479285 -0.007322847 0 0.01492595 -0.00738579 0 0.01492595 -0.004614174 0 0.01400721 0.005852937 0 0.01399999 0.005999982 0 0.007935404 0.004564583 0 0.01400721 0.006146967 0 0.01402878 0.006292581 0 0.01406455 -0.006435394 0 0.01411414 -0.006573975 0 0.01417708 -0.006707072 0 0.01425278 -0.006833314 0 0.01633334 -0.004752755 0 0.01620709 -0.004677116 0 0.016074 -0.004614174 0 0.01454836 0.004840433 0 0.01466661 -0.007247149 0 0.01411414 0.00542593 0 0.01417708 0.005292892 0 0.01799994 -0.008499979 0 0.01656061 0.004939317 0 0.01665949 0.005048394 0 0.01674717 0.00516659 0 0.01682287 0.005292892 0 0.01688581 0.00542593 0 0.01593542 -0.004564583 0 0.0157926 -0.00452882 0 0.01402878 0.005707323 0 0.01564699 -0.004507184 0 0.01549994 -0.004499971 0 0.01406455 0.00556457 0 0.01425278 0.00516659 0 0.01434046 0.005048394 0 0.01434046 -0.00695157 0 0.01443934 -0.007060647 0 0.01454836 -0.007159471 0 0.01492595 0.00738579 0 0.008207082 0.004677116 0 0.008333325 0.004752755 0 0.007352948 0.007492721 0 0.007207334 0.007471144 0 0.007064521 0.007435381 0 0.01535296 -0.004507184 0 0.01520735 -0.00452882 0 0.01506453 -0.004564583 0 0.01620709 -0.007322847 0 0.016074 -0.00738579 0 0.01593542 -0.007435381 0 0.01656061 -0.007060647 0 0.01665949 -0.00695157 0 0.01674717 -0.006833314 0 0.01682287 -0.006707072 0 0.016074 0.004614174 0 0.01620709 0.004677116 0 0.0169354 0.00556457 0 0.01697117 0.005707323 0 0.01799994 0.008499979 0 0.01699274 0.005852937 0 0.01699995 0.005999982 0 0.01699274 0.006146967 0 0.01697117 0.006292581 0 0.0169354 0.006435394 0 0.01688581 0.006573975 0 0.01682287 0.006707072 0 0.01674717 0.006833314 0 0.01665949 0.00695157 0 0.01656061 0.007060647 0 0.01645153 0.007159471 0 0.008451581 0.004840433 0 0.008560657 0.004939317 0 0.008659482 0.005048394 0 0.007499992 0.007499992 0 0.007646977 0.007492721 0 0.01549994 -0.007499992 0 0.01564699 -0.007492721 0 0.0157926 -0.007471144 0 0.01633334 -0.007247149 0 0.01645153 -0.007159471 0 0.01633334 0.007247149 0 0.01620709 0.007322847 0 0.016074 0.00738579 0 0.01506453 -0.007435381 0 0.01520735 -0.007471144 0 0.01535296 -0.007492721 0 0.01688581 -0.006573975 0 0.0169354 -0.006435394 0 0.01697117 -0.006292581 0 0.01633334 0.004752755 0 0.01645153 0.004840433 0 0.008560657 0.007060647 0 0.008451581 0.007159471 0 0.01506453 0.004564583 0 0.01520735 0.00452882 0 0.01535296 0.004507184 0 0.00874716 0.00516659 0 0.008822858 0.005292892 0 0.01506453 0.007435381 0 0.0088858 0.00542593 0 0.008935391 0.00556457 0 0.008333325 0.007247149 0 0.008207082 0.007322847 0 0.008073985 0.00738579 0 0.01699274 -0.006146967 0 0.01699995 -0.005999982 0 0.01699274 -0.005852937 0 0.01593542 0.007435381 0 0.0157926 0.007471144 0 0.01564699 0.007492721 0 0.01549994 0.007499992 0 0.01535296 0.007492721 0 0.01520735 0.007471144 0 0.007935404 0.007435381 0 0.007792592 0.007471144 0 0.01549994 0.004499971 0 0.01564699 0.004507184 0 0.0157926 0.00452882 0 0.01593542 0.004564583 0 0.008971154 0.005707323 0 0.008992731 0.005852937 0 0.008999943 0.005999982 0 0.008822858 0.006707072 0 0.00874716 0.006833314 0 0.008659482 0.00695157 0 0.008992731 0.006146967 0 0.008971154 0.006292581 0 0.008935391 0.006435394 0 0.0088858 0.006573975 0 0 -0.003770649 0.02799266 0 -0.003499984 0.02799999 0 -0.007480442 0.02602583 0 -0.007638394 0.02580589 0 0.008499979 0.023 0 0.004837632 0.02781772 0 0.005096495 0.02773821 0 0.003499984 0.02799999 0 0.003770649 0.02799266 0 0.004040539 0.02797067 0 0.006305932 0.02713841 0 0.006077766 0.02728426 0 0.00584203 0.02741754 0 0.008434116 0.02380889 0 0.008470654 0.02354055 0 0.007784247 0.02557772 0 -0.008499979 0.023 0 -0.008492648 0.02327066 0 -0.008470654 0.02354055 0 -0.007310807 0.02623689 0 -0.007129967 0.02643847 0 -0.004308879 0.02793413 0 -0.006938457 0.02662992 0 -0.004040539 0.02797067 0 0.004308879 0.02793413 0 0.004574835 0.02788305 0 0.005350649 0.02764487 0 0.005599439 0.02753788 0 0.007480442 0.02602583 0 0.007638394 0.02580589 0 0.008492648 0.02327066 0 -0.008037865 0.02509939 0 -0.007917523 0.02534204 0 -0.007784247 0.02557772 0 0.006525814 0.02698045 0 0.006736874 0.02681076 0 0.006938457 0.02662992 0 -0.006736874 0.02681076 0 -0.006525814 0.02698045 0 -0.004574835 0.02788305 0 0.007129967 0.02643847 0 0.007310807 0.02623689 0 0.007917523 0.02534204 0 0.008037865 0.02509939 0 0.008317708 0.02433758 0 0.008144855 0.02485066 0 0.008238255 0.02459651 0 0.008383095 0.02407485 0 -0.008434116 0.02380889 0 -0.008383095 0.02407485 0 -0.008317708 0.02433758 0 -0.008238255 0.02459651 0 -0.008144855 0.02485066 0 -0.004837632 0.02781772 0 -0.006305932 0.02713841 0 -0.006077766 0.02728426 0 -0.00584203 0.02741754 0 -0.005599439 0.02753788 0 -0.005096495 0.02773821 0 -0.005350649 0.02764487 0.003999948 -0.008499979 0.023 0.003999948 -0.008499979 0.004499971 0.003999948 0.008499979 0.023 0.003999948 0.008499979 0.004499971 0.003999948 -0.003999948 0.004499971 0.003999948 -0.007480442 0.02602583 0.003999948 -0.004040539 0.02797067 0.003999948 -0.004308879 0.02793413 0.003999948 -0.008434116 0.02380889 0.003999948 -0.008470654 0.02354055 0.003999948 -0.003999948 0.0279749 0.003999948 -0.008492648 0.02327066 0.003999948 -0.006938457 0.02662992 0.003999948 -0.004574835 0.02788305 0.003999948 -0.007129967 0.02643847 0.003999948 -0.007310807 0.02623689 0.003999948 -0.007638394 0.02580589 0.003999948 -0.007784247 0.02557772 0.003999948 -0.007917523 0.02534204 0.003999948 -0.008037865 0.02509939 0.003999948 -0.008144855 0.02485066 0.003999948 -0.008238255 0.02459651 0.003999948 -0.008317708 0.02433758 0.003999948 -0.008383095 0.02407485 0.003999948 -0.004837632 0.02781772 0.003999948 -0.005096495 0.02773821 0.003999948 -0.005350649 0.02764487 0.003999948 -0.005599439 0.02753788 0.003999948 -0.00584203 0.02741754 0.003999948 -0.006077766 0.02728426 0.003999948 -0.006305932 0.02713841 0.003999948 -0.006525814 0.02698045 0.003999948 -0.006736874 0.02681076 0.005999982 -0.001999974 0.02442854 0.005999982 -0.001999974 0.004999995 0.01687997 -0.001999974 0.004999995 0.005999982 0.001999974 0.004999995 0.005999982 0.001999974 0.02442854 0.01687997 0.001999974 0.004999995 0.003999948 0.003999948 0.004499971 0.003999948 0.003999948 0.0279749 0.003999948 0.006736874 0.02681076 0.003999948 0.006525814 0.02698045 0.003999948 0.006305932 0.02713841 0.003999948 0.004837632 0.02781772 0.003999948 0.004574835 0.02788305 0.003999948 0.007784247 0.02557772 0.003999948 0.007638394 0.02580589 0.003999948 0.007480442 0.02602583 0.003999948 0.007310807 0.02623689 0.003999948 0.006077766 0.02728426 0.003999948 0.00584203 0.02741754 0.003999948 0.005599439 0.02753788 0.003999948 0.004308879 0.02793413 0.003999948 0.004040539 0.02797067 0.003999948 0.008492648 0.02327066 0.003999948 0.008470654 0.02354055 0.003999948 0.008434116 0.02380889 0.003999948 0.008144855 0.02485066 0.003999948 0.008037865 0.02509939 0.003999948 0.008238255 0.02459651 0.003999948 0.008317708 0.02433758 0.003999948 0.008383095 0.02407485 0.003999948 0.007917523 0.02534204 0.003999948 0.007129967 0.02643847 0.003999948 0.006938457 0.02662992 0.003999948 0.005350649 0.02764487 0.003999948 0.005096495 0.02773821 0.003999948 0.003499984 0.02799999 0.003999948 -0.003499984 0.02799999 0.004001021 -0.003635346 0.02799814 0.004004061 -0.003770649 0.02799266 0.00401324 -0.003986656 0.02797621 0.00401324 0.003986656 0.02797621 0.004004061 0.003770649 0.02799266 0.004001021 0.003635346 0.02799814 0.004749953 -0.003249943 0.003749966 0.004749953 0.003249943 0.003749966</float_array>
          <technique_common>
            <accessor source="#gripper_l-mesh-positions-array" count="662" stride="3">
              <param name="X" type="float" />
              <param name="Y" type="float" />
              <param name="Z" type="float" />
            </accessor>
          </technique_common>
        </source>
        <source id="gripper_l-mesh-normals">
          <float_array id="gripper_l-mesh-normals-array" count="4008">0 0 1 0 0 1 0 0 1 0 0 1 0 0 1 0 0 1 0 0 1 0 0 1 0 0 1 0 0 1 0 0 1 0 0 1 0 0 1 0 0 1 0 0 1 0 0 1 0 0 1 0 0 1 0 0 1 0 0 1 0 0 1 0 0 1 0 0 1 0 0 1 0 0 1 0 0 1 0 0 1 0 0 1 0 0 1 0 0 1 0 0 1 0 0 1 0 0 1 0 0 1 0 0 1 0 0 1 0 0 1 0 0 1 0 0 1 0 0 1 0 0 1 0 0 1 0 0 1 0 0 1 0 0 1 0 0 1 0 0 1 0 0 1 0 0 1 0 0 1 0 0 1 0 0 1 0 0 1 0 0 1 0 0 1 0 0 1 0 0 1 0 0 1 0 0 1 0 0 1 0 0 1 0 0 1 0 0 1 0 0 1 0 0 1 0 0 1 0 0 1 0 0 1 0 0 1 0 0 1 0 0 1 0 0 1 0 0 1 0 0 1 0 0 1 0 0 1 0 0 1 0 0 1 0 0 1 0 0 1 0 0 1 0 0 1 0 0 1 0 0 1 0 0 1 0 0 1 0 0 1 0 0 1 0 0 1 0 0 1 0 0 1 0 0 1 0 0 1 0 0 1 0 0 1 0 0 1 0 0 1 0 0 1 0 0 1 0 0 1 0 0 1 0 0 1 0 0 1 0 0 1 0 0 1 0 0 1 0 0 1 0 0 1 0 0 1 0 0 1 0 0 1 0 0 1 0 0 1 0 0 1 0 0 1 0 0 1 0 0 1 0 0 1 0 0 1 0 0 1 0 0 1 0 0 1 0 0 1 0 0 1 0 0 1 0 0 1 0 0 1 0 0 1 0 0 1 0 0 1 0 0 1 0 0 1 0 0 1 0 0 1 0 0 1 0 0 1 0 0 1 0 0 1 0 0 1 0 0 1 0 0 1 0 0 1 0 0 1 0 0 1 0 0 1 0 0 1 0 0 1 0 0 1 0 0 1 0 0 1 0 0 1 0 0 1 0 0 1 0 0 1 0 0 1 0 0 1 0 0 1 0 0 1 0 0 1 0 0 1 0 0 1 0 0 1 0 0 1 0 0 1 0 0 1 0 0 1 0 0 1 0 0 1 0 0 1 0 0 1 0 0 1 0 0 1 0 0 1 0 0 1 0 0 1 0 0 1 0 0 1 0 0 1 0 0 1 0 0 1 0 0 1 0 0 1 0 0 1 0 0 1 0 0 1 0 0 1 0 0 1 0 0 1 0 0 1 0 0 1 0 0 1 0 0 1 0 0 1 0 0 1 0 0 1 0 0 1 0 0 1 0 0 1 0 0 1 0 0 1 0 0 1 0 0 1 0 0 1 0 0 1 0 0 1 0 0 1 0 0 1 0 0 1 0 0 1 0 0 1 0 0 1 0 0 1 0 0 1 0 0 1 0 0 1 0 0 1 0 0 1 0 0 1 0 0 1 0 0 1 0 0 1 0 0 1 0 0 1 0 0 1 0 0 1 0 0 1 0 0 1 0 0 1 0 0 1 0 0 1 0 0 1 0 0 1 0 0 1 0 0 1 0 0 1 0 0 1 0 0 1 0 0 1 0 0 1 0 0 1 0 0 1 0 0 1 0 0 1 0 0 1 0 0 1 0 0 1 0 0 1 0 0 1 0 0 1 0 0 1 0 0 1 0 0 1 0 0 1 0 0 1 0 0 1 0 0 1 0 0 1 0 0 1 0 0 1 0 0 1 0 0 1 0 0 1 0 0 1 0 0 1 0 0 1 0 0 1 0 0 1 0 0 1 0 0 -1 0 0 -1 0 0 -1 0 0 -1 0 0 -1 0 0 -1 0 0 -1 0 0 -1 0 0 -1 0 0 -1 0 0 -1 0 0 -1 0 0 -1 0 0 -1 0 0 -1 0 0 -1 0 0 -1 0 0 -1 0 0 -1 0 0 -1 0 0 -1 0 0 -1 0 0 -1 0 0 -1 0 0 -1 0 0 -1 0 0 -1 0 0 -1 0 0 -1 0 0 -1 0 0 -1 0 0 -1 0 0 -1 0 0 -1 0 0 -1 0 0 -1 0 0 -1 0 0 -1 0 0 -1 0 0 -1 0 0 -1 0 0 -1 0 0 -1 0 0 -1 0 0 -1 0 0 -1 0 0 -1 0 0 -1 0 0 -1 0 0 -1 0 0 -1 0 0 -1 0 0 -1 0 0 -1 0 0 -1 0 0 -1 0 0 -1 0 0 -1 0 0 -1 0 0 -1 0 0 -1 0 0 -1 0 0 -1 0 0 -1 0 0 -1 0 0 -1 0 0 -1 0 0 -1 0 0 -1 0 0 -1 0 0 -1 0 0 -1 0 0 -1 0 0 -1 0 0 -1 0 0 -1 0 0 -1 0 0 -1 0 0 -1 0 0 -1 0 0 -1 0 0 -1 0 0 -1 0 0 -1 0 0 -1 0 0 -1 0 0 -1 0 0 -1 0 0 -1 0 0 -1 0 0 -1 0 0 -1 0 0 -1 0 0 -1 0 0 -1 0 0 -1 0 0 -1 0 0 -1 0 0 -1 0 0 -1 0 0 -1 0 0 -1 0 0 -1 0 0 -1 0 0 -1 0 0 -1 0 0 -1 0 0 -1 0 0 -1 0 0 -1 0 0 -1 0 0 -1 0 0 -1 0 0 -1 0 0 -1 0 0 -1 0 0 -1 0 0 -1 0 0 -1 0 0 -1 0 0 -1 0 0 -1 0 0 -1 0 0 -1 0 0 -1 0 0 -1 0 0 -1 0 0 -1 0 0 -1 0 0 -1 0 0 -1 0 0 -1 0 0 -1 0 0 -1 0 0 -1 0 0 -1 0 0 -1 0 0 -1 0 0 -1 0 0 -1 0 0 -1 0 0 -1 0 0 -1 0 0 -1 0 0 -1 0 0 -1 0 0 -1 0 0 -1 0 0 -1 0 0 -1 0 0 -1 0 0 -1 0 0 -1 0 0 -1 0 0 -1 0 0 -1 0 0 -1 0 0 -1 0 0 -1 0 0 -1 0 0 -1 0 0 -1 0 0 -1 0 0 -1 0 0 -1 0 0 -1 0 0 -1 0 0 -1 0 0 -1 0 0 -1 0 0 -1 0 0 -1 0 0 -1 0 0 -1 0 0 -1 0 0 -1 0 0 -1 0 0 -1 0 0 -1 0 0 -1 0 0 -1 0 0 -1 0 0 -1 0 0 -1 0 0 -1 0 0 -1 0 0 -1 0 0 -1 0 0 -1 0 0 -1 0 0 -1 0 0 -1 0 0 -1 0 0 -1 0 0 -1 0 0 -1 0 0 -1 0 0 -1 0 0 -1 0 0 -1 0 0 -1 0 0 -1 0 0 -1 0 0 -1 0 0 -1 0 0 -1 0 0 -1 0 0 -1 0 0 -1 0 0 -1 0 0 -1 0 0 -1 0 0 -1 0 0 -1 0 0 -1 0 0 -1 0 0 -1 0 0 -1 0 0 -1 0 0 -1 0 0 -1 0 0 -1 0 0 -1 0 0 -1 0 0 -1 0 0 -1 0 0 -1 0 0 -1 0 0 -1 0 0 -1 0 0 -1 0 0 -1 0 0 -1 0 0 -1 0 0 -1 0 0 -1 0 0 -1 0 0 -1 0 0 -1 0 0 -1 0 0 -1 0 0 -1 0 0 -1 0 0 -1 0 0 -1 0 0 -1 0 0 -1 0 0 -1 0 0 -1 0 0 -1 0 0 -1 0 0 -1 0 0 -1 0 0 -1 0 0 -1 0 0 -1 0 0 -1 0 0 -1 0 0 -1 0 0 -1 0 0 -1 0 0 -1 0 0 -1 0 0 -1 0 0 -1 0 0 -1 -1 0 0 -1 0 0 -1 0 0 -1 0 0 -1 0 0 -1 0 0 -1 0 0 -1 0 0 -1 0 0 -1 0 0 -1 0 0 -1 0 0 -1 0 0 -1 0 0 -1 0 0 -1 0 0 -1 0 0 -1 0 0 -1 0 0 -1 0 0 -1 0 0 -1 0 0 -1 0 0 -1 0 0 -1 0 0 -1 0 0 -1 0 0 -1 0 0 -1 0 0 -1 0 0 -1 0 0 -1 0 0 -1 0 0 -1 0 0 -1 0 0 -1 0 0 -1 0 0 -1 0 0 -1 0 0 -1 0 0 -1 0 0 -1 0 0 -1 0 0 -1 0 0 -1 0 0 -1 0 0 -1 0 0 -1 0 0 -1 0 0 -1 0 0 -1 0 0 -1 0 0 -1 0 0 -1 0 0 -1 0 0 -1 0 0 -1 0 0 -1 0 0 -1 0 0 -1 0 0 0 -1 0 0 -1 0 0 -1 0 0 -1 0 0 -1 0 1 0 0 1 0 0 1 0 0 1 0 0 0 1 0 0 1 0 0 1 0 0 1 0 0 1 0 0.9987955 -0.04906743 0 0.9987955 -0.04906743 0 0.9891765 -0.1467307 0 0.9891765 -0.1467307 0 0.9700312 -0.2429807 0 0.9700312 -0.2429807 0 0.9415447 -0.3368882 0 0.9415447 -0.3368882 0 0.903989 -0.4275557 0 0.903989 -0.4275557 0 0.857729 -0.5141022 0 0.857729 -0.5141022 0 0.8032079 -0.5956988 0 0.8032079 -0.5956988 0 0.7409497 -0.6715606 0 0.7409497 -0.6715606 0 0.671559 -0.7409511 0 0.671559 -0.7409511 0 0.5957003 -0.8032068 0 0.5957003 -0.8032068 0 0.5141022 -0.857729 0 0.5141022 -0.857729 0 0.4275544 -0.9039896 0 0.4275544 -0.9039896 0 0.3368892 -0.9415444 0 0.3368892 -0.9415444 0 0.2429807 -0.9700312 0 0.2429807 -0.9700312 0 0.1467307 -0.9891765 0 0.1467307 -0.9891765 0 0.04906743 -0.9987955 0 0.04906743 -0.9987955 0 -0.04906743 -0.9987955 0 -0.04906743 -0.9987955 0 -0.1467307 -0.9891765 0 -0.1467307 -0.9891765 0 -0.24298 -0.9700313 0 -0.24298 -0.9700313 0 -0.3368902 -0.9415439 0 -0.3368902 -0.9415439 0 -0.4275544 -0.9039896 0 -0.4275544 -0.9039896 0 -0.5141022 -0.857729 0 -0.5141022 -0.857729 0 -0.5957003 -0.8032068 0 -0.5957003 -0.8032068 0 -0.6715574 -0.7409526 0 -0.6715574 -0.7409526 0 -0.7409512 -0.6715588 0 -0.7409512 -0.6715588 0 -0.8032079 -0.5956988 0 -0.8032079 -0.5956988 0 -0.857729 -0.5141022 0 -0.857729 -0.5141022 0 -0.9039878 -0.4275583 0 -0.9039878 -0.4275583 0 -0.9415447 -0.3368882 0 -0.9415447 -0.3368882 0 -0.9700312 -0.2429807 0 -0.9700312 -0.2429807 0 -0.9891765 -0.1467307 0 -0.9891765 -0.1467307 0 -0.9987956 -0.04906427 0 -0.9987956 -0.04906427 0 -0.9987956 0.04906427 0 -0.9987956 0.04906427 0 -0.9891765 0.1467307 0 -0.9891765 0.1467307 0 -0.9700313 0.24298 0 -0.9700313 0.24298 0 -0.9415444 0.3368892 0 -0.9415444 0.3368892 0 -0.9039878 0.4275583 0 -0.9039878 0.4275583 0 -0.857729 0.5141022 0 -0.857729 0.5141022 0 -0.8032079 0.5956988 0 -0.8032079 0.5956988 0 -0.7409512 0.6715588 0 -0.7409512 0.6715588 0 -0.6715574 0.7409526 0 -0.6715574 0.7409526 0 -0.5957003 0.8032068 0 -0.5957003 0.8032068 0 -0.5141022 0.857729 0 -0.5141022 0.857729 0 -0.4275544 0.9039896 0 -0.4275544 0.9039896 0 -0.336893 0.9415429 0 -0.336893 0.9415429 0 -0.24298 0.9700313 0 -0.24298 0.9700313 0 -0.1467307 0.9891765 0 -0.1467307 0.9891765 0 -0.04906743 0.9987955 0 -0.04906743 0.9987955 0 0.04906743 0.9987955 0 0.04906743 0.9987955 0 0.1467307 0.9891765 0 0.1467307 0.9891765 0 0.2429807 0.9700312 0 0.2429807 0.9700312 0 0.336892 0.9415433 0 0.336892 0.9415433 0 0.4275544 0.9039896 0 0.4275544 0.9039896 0 0.5141022 0.857729 0 0.5141022 0.857729 0 0.5957003 0.8032068 0 0.5957003 0.8032068 0 0.671559 0.7409511 0 0.671559 0.7409511 0 0.7409497 0.6715606 0 0.7409497 0.6715606 0 0.8032079 0.5956988 0 0.8032079 0.5956988 0 0.857729 0.5141022 0 0.857729 0.5141022 0 0.903989 0.4275557 0 0.903989 0.4275557 0 0.9415444 0.3368892 0 0.9415444 0.3368892 0 0.9700313 0.24298 0 0.9700313 0.24298 0 0.9891765 0.1467307 0 0.9891765 0.1467307 0 0.9987955 0.04906743 0 0.9987955 0.04906743 0 0.9987953 -0.04907059 0 0.9987953 -0.04907059 0 0.9891765 -0.1467307 0 0.9891765 -0.1467307 0 0.9700312 -0.2429807 0 0.9700312 -0.2429807 0 0.9415447 -0.3368882 0 0.9415447 -0.3368882 0 0.9039878 -0.4275583 0 0.9039878 -0.4275583 0 0.857729 -0.5141022 0 0.857729 -0.5141022 0 0.8032079 -0.5956988 0 0.8032079 -0.5956988 0 0.7409512 -0.6715588 0 0.7409512 -0.6715588 0 0.6715606 -0.7409497 0 0.6715606 -0.7409497 0 0.5956972 -0.803209 0 0.5956972 -0.803209 0 0.5141022 -0.857729 0 0.5141022 -0.857729 0 0.4275569 -0.9039884 0 0.4275569 -0.9039884 0 0.3368882 -0.9415447 0 0.3368882 -0.9415447 0 0.2429807 -0.9700312 0 0.2429807 -0.9700312 0 0.1467303 -0.9891765 0 0.1467303 -0.9891765 0 0.04906761 -0.9987955 0 0.04906761 -0.9987955 0 -0.04906731 -0.9987955 0 -0.04906731 -0.9987955 0 -0.1467303 -0.9891765 0 -0.1467303 -0.9891765 0 -0.2429822 -0.9700307 0 -0.2429822 -0.9700307 0 -0.3368902 -0.9415439 0 -0.3368902 -0.9415439 0 -0.427552 -0.9039908 0 -0.427552 -0.9039908 0 -0.5141049 -0.8577273 0 -0.5141049 -0.8577273 0 -0.5956972 -0.803209 0 -0.5956972 -0.803209 0 -0.6715574 -0.7409526 0 -0.6715574 -0.7409526 0 -0.7409543 -0.6715553 0 -0.7409543 -0.6715553 0 -0.8032049 -0.5957029 0 -0.8032049 -0.5957029 0 -0.857729 -0.5141022 0 -0.857729 -0.5141022 0 -0.9039903 -0.4275531 0 -0.9039903 -0.4275531 0 -0.9415447 -0.3368882 0 -0.9415447 -0.3368882 0 -0.9700296 -0.2429866 0 -0.9700296 -0.2429866 0 -0.9891765 -0.1467307 0 -0.9891765 -0.1467307 0 -0.9987959 -0.04905796 0 -0.9987959 -0.04905796 0 -0.9987959 0.04905796 0 -0.9987959 0.04905796 0 -0.9891765 0.1467307 0 -0.9891765 0.1467307 0 -0.9700298 0.2429859 0 -0.9700298 0.2429859 0 -0.9415444 0.3368892 0 -0.9415444 0.3368892 0 -0.9039903 0.4275531 0 -0.9039903 0.4275531 0 -0.857729 0.5141022 0 -0.857729 0.5141022 0 -0.8032049 0.5957029 0 -0.8032049 0.5957029 0 -0.7409543 0.6715553 0 -0.7409543 0.6715553 0 -0.6715574 0.7409526 0 -0.6715574 0.7409526 0 -0.5956972 0.803209 0 -0.5956972 0.803209 0 -0.5141049 0.8577273 0 -0.5141049 0.8577273 0 -0.427552 0.9039908 0 -0.427552 0.9039908 0 -0.336893 0.9415429 0 -0.336893 0.9415429 0 -0.2429822 0.9700307 0 -0.2429822 0.9700307 0 -0.1467303 0.9891765 0 -0.1467303 0.9891765 0 -0.04906731 0.9987955 0 -0.04906731 0.9987955 0 0.04906761 0.9987955 0 0.04906761 0.9987955 0 0.1467303 0.9891765 0 0.1467303 0.9891765 0 0.2429807 0.9700312 0 0.2429807 0.9700312 0 0.336891 0.9415436 0 0.336891 0.9415436 0 0.4275569 0.9039884 0 0.4275569 0.9039884 0 0.5141022 0.857729 0 0.5141022 0.857729 0 0.5956972 0.803209 0 0.5956972 0.803209 0 0.6715606 0.7409497 0 0.6715606 0.7409497 0 0.7409512 0.6715588 0 0.7409512 0.6715588 0 0.8032079 0.5956988 0 0.8032079 0.5956988 0 0.857729 0.5141022 0 0.857729 0.5141022 0 0.9039878 0.4275583 0 0.9039878 0.4275583 0 0.9415444 0.3368892 0 0.9415444 0.3368892 0 0.9700313 0.24298 0 0.9700313 0.24298 0 0.9891765 0.1467307 0 0.9891765 0.1467307 0 0.9987953 0.04907059 0 0.9987953 0.04907059 0 0.9987953 -0.04907059 0 0.9987953 -0.04907059 0 0.9891765 -0.1467307 0 0.9891765 -0.1467307 0 0.9700313 -0.24298 0 0.9700313 -0.24298 0 0.9415444 -0.3368892 0 0.9415444 -0.3368892 0 0.9039878 -0.4275583 0 0.9039878 -0.4275583 0 0.857729 -0.5141022 0 0.857729 -0.5141022 0 0.8032079 -0.5956988 0 0.8032079 -0.5956988 0 0.7409512 -0.6715588 0 0.7409512 -0.6715588 0 0.6715606 -0.7409497 0 0.6715606 -0.7409497 0 0.5956972 -0.803209 0 0.5956972 -0.803209 0 0.5141022 -0.857729 0 0.5141022 -0.857729 0 0.4275569 -0.9039884 0 0.4275569 -0.9039884 0 0.336891 -0.9415436 0 0.336891 -0.9415436 0 0.2429807 -0.9700312 0 0.2429807 -0.9700312 0 0.1467303 -0.9891765 0 0.1467303 -0.9891765 0 0.04906761 -0.9987955 0 0.04906761 -0.9987955 0 -0.04906731 -0.9987955 0 -0.04906731 -0.9987955 0 -0.1467303 -0.9891765 0 -0.1467303 -0.9891765 0 -0.2429822 -0.9700307 0 -0.2429822 -0.9700307 0 -0.336893 -0.9415429 0 -0.336893 -0.9415429 0 -0.427552 -0.9039908 0 -0.427552 -0.9039908 0 -0.5141049 -0.8577273 0 -0.5141049 -0.8577273 0 -0.5956972 -0.803209 0 -0.5956972 -0.803209 0 -0.6715574 -0.7409526 0 -0.6715574 -0.7409526 0 -0.7409543 -0.6715553 0 -0.7409543 -0.6715553 0 -0.8032049 -0.5957029 0 -0.8032049 -0.5957029 0 -0.857729 -0.5141022 0 -0.857729 -0.5141022 0 -0.9039903 -0.4275531 0 -0.9039903 -0.4275531 0 -0.9415444 -0.3368892 0 -0.9415444 -0.3368892 0 -0.9700298 -0.2429859 0 -0.9700298 -0.2429859 0 -0.9891765 -0.1467307 0 -0.9891765 -0.1467307 0 -0.9987959 -0.04905796 0 -0.9987959 -0.04905796 0 -0.9987959 0.04905796 0 -0.9987959 0.04905796 0 -0.9891765 0.1467307 0 -0.9891765 0.1467307 0 -0.9700296 0.2429866 0 -0.9700296 0.2429866 0 -0.9415447 0.3368882 0 -0.9415447 0.3368882 0 -0.9039903 0.4275531 0 -0.9039903 0.4275531 0 -0.857729 0.5141022 0 -0.857729 0.5141022 0 -0.8032049 0.5957029 0 -0.8032049 0.5957029 0 -0.7409543 0.6715553 0 -0.7409543 0.6715553 0 -0.6715574 0.7409526 0 -0.6715574 0.7409526 0 -0.5956972 0.803209 0 -0.5956972 0.803209 0 -0.5141049 0.8577273 0 -0.5141049 0.8577273 0 -0.427552 0.9039908 0 -0.427552 0.9039908 0 -0.3368902 0.9415439 0 -0.3368902 0.9415439 0 -0.2429822 0.9700307 0 -0.2429822 0.9700307 0 -0.1467303 0.9891765 0 -0.1467303 0.9891765 0 -0.04906731 0.9987955 0 -0.04906731 0.9987955 0 0.04906761 0.9987955 0 0.04906761 0.9987955 0 0.1467303 0.9891765 0 0.1467303 0.9891765 0 0.2429807 0.9700312 0 0.2429807 0.9700312 0 0.3368882 0.9415447 0 0.3368882 0.9415447 0 0.4275569 0.9039884 0 0.4275569 0.9039884 0 0.5141022 0.857729 0 0.5141022 0.857729 0 0.5956972 0.803209 0 0.5956972 0.803209 0 0.6715606 0.7409497 0 0.6715606 0.7409497 0 0.7409512 0.6715588 0 0.7409512 0.6715588 0 0.8032079 0.5956988 0 0.8032079 0.5956988 0 0.857729 0.5141022 0 0.857729 0.5141022 0 0.9039878 0.4275583 0 0.9039878 0.4275583 0 0.9415447 0.3368882 0 0.9415447 0.3368882 0 0.9700312 0.2429807 0 0.9700312 0.2429807 0 0.9891765 0.1467307 0 0.9891765 0.1467307 0 0.9987953 0.04907059 0 0.9987953 0.04907059 0 0.9987955 -0.04906743 0 0.9987955 -0.04906743 0 0.9891765 -0.1467307 0 0.9891765 -0.1467307 0 0.9700313 -0.24298 0 0.9700313 -0.24298 0 0.9415444 -0.3368892 0 0.9415444 -0.3368892 0 0.903989 -0.4275557 0 0.903989 -0.4275557 0 0.857729 -0.5141022 0 0.857729 -0.5141022 0 0.8032079 -0.5956988 0 0.8032079 -0.5956988 0 0.7409497 -0.6715606 0 0.7409497 -0.6715606 0 0.671559 -0.7409511 0 0.671559 -0.7409511 0 0.5957003 -0.8032068 0 0.5957003 -0.8032068 0 0.5141022 -0.857729 0 0.5141022 -0.857729 0 0.4275544 -0.9039896 0 0.4275544 -0.9039896 0 0.336892 -0.9415433 0 0.336892 -0.9415433 0 0.2429807 -0.9700312 0 0.2429807 -0.9700312 0 0.1467307 -0.9891765 0 0.1467307 -0.9891765 0 0.04906743 -0.9987955 0 0.04906743 -0.9987955 0 -0.04906743 -0.9987955 0 -0.04906743 -0.9987955 0 -0.1467307 -0.9891765 0 -0.1467307 -0.9891765 0 -0.24298 -0.9700313 0 -0.24298 -0.9700313 0 -0.336893 -0.9415429 0 -0.336893 -0.9415429 0 -0.4275544 -0.9039896 0 -0.4275544 -0.9039896 0 -0.5141022 -0.857729 0 -0.5141022 -0.857729 0 -0.5957003 -0.8032068 0 -0.5957003 -0.8032068 0 -0.6715574 -0.7409526 0 -0.6715574 -0.7409526 0 -0.7409512 -0.6715588 0 -0.7409512 -0.6715588 0 -0.8032079 -0.5956988 0 -0.8032079 -0.5956988 0 -0.857729 -0.5141022 0 -0.857729 -0.5141022 0 -0.9039878 -0.4275583 0 -0.9039878 -0.4275583 0 -0.9415444 -0.3368892 0 -0.9415444 -0.3368892 0 -0.9700313 -0.24298 0 -0.9700313 -0.24298 0 -0.9891765 -0.1467307 0 -0.9891765 -0.1467307 0 -0.9987956 -0.04906427 0 -0.9987956 -0.04906427 0 -0.9987956 0.04906427 0 -0.9987956 0.04906427 0 -0.9891765 0.1467307 0 -0.9891765 0.1467307 0 -0.9700312 0.2429807 0 -0.9700312 0.2429807 0 -0.9415447 0.3368882 0 -0.9415447 0.3368882 0 -0.9039878 0.4275583 0 -0.9039878 0.4275583 0 -0.857729 0.5141022 0 -0.857729 0.5141022 0 -0.8032079 0.5956988 0 -0.8032079 0.5956988 0 -0.7409512 0.6715588 0 -0.7409512 0.6715588 0 -0.6715574 0.7409526 0 -0.6715574 0.7409526 0 -0.5957003 0.8032068 0 -0.5957003 0.8032068 0 -0.5141022 0.857729 0 -0.5141022 0.857729 0 -0.4275544 0.9039896 0 -0.4275544 0.9039896 0 -0.3368902 0.9415439 0 -0.3368902 0.9415439 0 -0.24298 0.9700313 0 -0.24298 0.9700313 0 -0.1467307 0.9891765 0 -0.1467307 0.9891765 0 -0.04906743 0.9987955 0 -0.04906743 0.9987955 0 0.04906743 0.9987955 0 0.04906743 0.9987955 0 0.1467307 0.9891765 0 0.1467307 0.9891765 0 0.2429807 0.9700312 0 0.2429807 0.9700312 0 0.3368892 0.9415444 0 0.3368892 0.9415444 0 0.4275544 0.9039896 0 0.4275544 0.9039896 0 0.5141022 0.857729 0 0.5141022 0.857729 0 0.5957003 0.8032068 0 0.5957003 0.8032068 0 0.671559 0.7409511 0 0.671559 0.7409511 0 0.7409497 0.6715606 0 0.7409497 0.6715606 0 0.8032079 0.5956988 0 0.8032079 0.5956988 0 0.857729 0.5141022 0 0.857729 0.5141022 0 0.903989 0.4275557 0 0.903989 0.4275557 0 0.9415447 0.3368882 0 0.9415447 0.3368882 0 0.9700312 0.2429807 0 0.9700312 0.2429807 0 0.9891765 0.1467307 0 0.9891765 0.1467307 0 0.9987955 0.04906743 0 0.9987955 0.04906743 0 1 0 0 1 0 0 1 0 0 1 0 0 1 0 0 1 0 0 1 0 0 1 0 0 1 0 0 1 0 0 1 0 0 1 0 0 1 0 0 1 0 0 1 0 0 1 0 0 1 0 0 1 0 0 1 0 0 1 0 0 1 0 0 1 0 0 1 0 0 1 0 0 1 0 0 1 0 0 1 0 0 1 0 0 1 0 0 0 -1 0 0 1 0 1 0 0 1 0 0 1 0 0 1 0 0 1 0 0 1 0 0 1 0 0 1 0 0 1 0 0 1 0 0 1 0 0 1 0 0 1 0 0 1 0 0 1 0 0 1 0 0 1 0 0 1 0 0 1 0 0 1 0 0 1 0 0 1 0 0 1 0 0 1 0 0 1 0 0 1 0 0 1 0 0 1 0 0 1 0 0 0 0 1 0 0 1 0.8725062 0 0.4886031 0.8725062 0 0.4886031 0.8725061 0 0.4886031 0.872506 0 0.4886034 0.872506 0 0.4886034 0.8725061 0 0.4886031 0.8725069 -4.17379e-6 0.4886018 0.8725058 1.53744e-6 0.4886038 0.8725063 -1.14844e-6 0.4886028 0.8725063 1.14844e-6 0.4886028 0.8725058 -1.53744e-6 0.4886038 0.8725069 4.17379e-6 0.4886018 0 0.07575899 0.9971262 -0.001179218 0.09752494 0.9952324 -2.34544e-4 0.08115893 0.9967012 0 0.02708047 0.9996333 -9.15737e-4 0.01355624 0.9999077 0 0.04060667 0.9991753 0 0.104047 0.9945724 0 0.1350035 0.9908452 0 0.1350035 0.9908452 0 0.1884426 0.9820842 0 0.1884426 0.9820842 0 0.2413378 0.9704412 0 0.2413378 0.9704412 0 0.2935241 0.9559516 0 0.2935241 0.9559516 0 0.3448451 0.9386596 0 0.3448451 0.9386596 0 0.3951602 0.9186122 0 0.3951602 0.9186122 0 0.4443085 0.8958739 0 0.4443085 0.8958739 0 0.4921662 0.8705012 0 0.4921662 0.8705012 0 0.5385642 0.8425844 0 0.5385642 0.8425844 0 0.5833964 0.8121876 0 0.5833964 0.8121876 0 0.6265103 0.7794132 0 0.6265103 0.7794132 0 0.6677886 0.744351 0 0.6677886 0.744351 0 0.7071059 0.7071076 0 0.7071059 0.7071076 0 0.7443518 0.6677877 0 0.7443518 0.6677877 0 0.7794134 0.6265101 0 0.7794134 0.6265101 0 0.8121885 0.5833953 0 0.8121885 0.5833953 0 0.8425827 0.5385672 0 0.8425827 0.5385672 0 0.8705034 0.4921624 0 0.8705034 0.4921624 0 0.8958725 0.4443113 0 0.8958725 0.4443113 0 0.9186132 0.3951579 0 0.9186132 0.3951579 0 0.938659 0.344847 0 0.938659 0.344847 0 0.9559522 0.2935224 0 0.9559522 0.2935224 0 0.9704412 0.2413378 0 0.9704412 0.2413378 0 0.9820837 0.1884453 0 0.9820837 0.1884453 0 0.9908455 0.1350005 0 0.9908455 0.1350005 0 0.9967012 0.08115881 0 0.9967012 0.08115881 0 0.9996333 0.02708047 0 0.9996333 0.02708047 -0.001556038 -0.1040468 0.9945712 0 -0.01354932 0.9999082 -4.58028e-4 -0.02708047 0.9996332 0 -0.04060667 0.9991753 0 -0.07709252 0.9970239 -0.02218258 -0.07667869 0.9968091 0 -0.08115893 0.9967012 0 -0.1350035 0.9908452 0 -0.1350035 0.9908452 0 -0.1884426 0.9820842 0 -0.1884426 0.9820842 0 -0.2413378 0.9704412 0 -0.2413378 0.9704412 0 -0.2935241 0.9559516 0 -0.2935241 0.9559516 0 -0.3448451 0.9386596 0 -0.3448451 0.9386596 0 -0.3951602 0.9186122 0 -0.3951602 0.9186122 0 -0.4443085 0.8958739 0 -0.4443085 0.8958739 0 -0.4921662 0.8705012 0 -0.4921662 0.8705012 0 -0.5385642 0.8425844 0 -0.5385642 0.8425844 0 -0.5833964 0.8121876 0 -0.5833964 0.8121876 0 -0.6265103 0.7794132 0 -0.6265103 0.7794132 0 -0.6677886 0.744351 0 -0.6677886 0.744351 0 -0.7071059 0.7071076 0 -0.7071059 0.7071076 0 -0.7443518 0.6677877 0 -0.7443518 0.6677877 0 -0.7794134 0.6265101 0 -0.7794134 0.6265101 0 -0.8121885 0.5833953 0 -0.8121885 0.5833953 0 -0.8425827 0.5385672 0 -0.8425827 0.5385672 0 -0.8705034 0.4921624 0 -0.8705034 0.4921624 0 -0.8958725 0.4443113 0 -0.8958725 0.4443113 0 -0.9186132 0.3951579 0 -0.9186132 0.3951579 0 -0.938659 0.344847 0 -0.938659 0.344847 0 -0.9559522 0.2935224 0 -0.9559522 0.2935224 0 -0.9704412 0.2413378 0 -0.9704412 0.2413378 0 -0.9820837 0.1884453 0 -0.9820837 0.1884453 0 -0.9908455 0.1350005 0 -0.9908455 0.1350005 0 -0.9967012 0.08115881 0 -0.9967012 0.08115881 0 -0.9996333 0.02708047 0 -0.9996333 0.02708047 0.7071068 2.1437e-7 0.7071068 0.7071068 0 0.7071068 0.7071068 0 0.7071068 0.7071068 -2.1437e-7 0.7071068 0.7071068 0 0.7071068 0.7071068 0 0.7071068 -1.28622e-7 -0.7071067 0.7071068 0 -0.7071068 0.7071068 0 -0.7071067 0.7071068 0.7071185 -0.7070951 1.31933e-5 0.7071069 -0.7071068 0 0.7071068 -0.7071068 0 0.7071068 -0.7071067 -3.00118e-7 -1.71496e-7 0.7071067 0.7071068 0 0.7071067 0.7071068 0 0.7071068 0.7071068 0.7071067 0.7071068 0 0.707107 0.7071066 0 0.7071067 0.7071068 0 0.7071192 0.7070944 0</float_array>
          <technique_common>
            <accessor source="#gripper_l-mesh-normals-array" count="1336" stride="3">
              <param name="X" type="float" />
              <param name="Y" type="float" />
              <param name="Z" type="float" />
            </accessor>
          </technique_common>
        </source>
        <vertices id="gripper_l-mesh-vertices">
          <input semantic="POSITION" source="#gripper_l-mesh-positions" />
        </vertices>
        <triangles count="1336">
          <input semantic="VERTEX" source="#gripper_l-mesh-vertices" offset="0" />
          <input semantic="NORMAL" source="#gripper_l-mesh-normals" offset="1" />
          <p>0 0 1 0 2 0 3 1 4 1 5 1 5 2 4 2 6 2 5 3 6 3 7 3 0 4 2 4 8 4 9 5 10 5 5 5 1 6 11 6 2 6 2 7 11 7 12 7 2 8 12 8 13 8 14 9 15 9 2 9 16 10 17 10 2 10 2 11 17 11 18 11 19 12 20 12 21 12 21 13 22 13 23 13 24 14 25 14 26 14 27 15 21 15 28 15 28 16 21 16 29 16 18 17 30 17 2 17 2 18 30 18 31 18 2 19 31 19 32 19 33 20 34 20 5 20 5 21 34 21 35 21 5 22 35 22 9 22 23 23 36 23 21 23 21 24 36 24 37 24 21 25 37 25 38 25 38 26 39 26 21 26 21 27 39 27 40 27 21 28 40 28 41 28 42 29 43 29 24 29 24 30 43 30 44 30 24 31 44 31 25 31 41 32 45 32 21 32 21 33 45 33 46 33 21 34 46 34 47 34 15 35 48 35 2 35 2 36 48 36 49 36 2 37 49 37 16 37 32 38 50 38 2 38 2 39 50 39 51 39 2 40 51 40 5 40 5 41 51 41 52 41 5 42 52 42 33 42 10 43 53 43 5 43 5 44 53 44 54 44 5 45 54 45 55 45 55 46 56 46 5 46 5 47 56 47 57 47 5 48 57 48 3 48 20 49 58 49 21 49 21 50 58 50 59 50 21 51 59 51 22 51 27 52 60 52 21 52 21 53 60 53 61 53 21 54 61 54 62 54 63 55 64 55 65 55 65 56 66 56 67 56 65 57 68 57 2 57 2 58 68 58 69 58 2 59 69 59 8 59 13 60 70 60 2 60 2 61 70 61 71 61 2 62 71 62 72 62 73 63 74 63 29 63 29 64 74 64 75 64 29 65 75 65 76 65 76 66 77 66 29 66 29 67 77 67 78 67 29 68 78 68 79 68 64 69 80 69 65 69 65 70 80 70 81 70 65 71 81 71 82 71 82 72 83 72 65 72 65 73 83 73 84 73 65 74 84 74 66 74 67 75 85 75 65 75 65 76 85 76 86 76 65 77 86 77 87 77 87 78 88 78 65 78 65 79 88 79 89 79 65 80 89 80 68 80 72 81 90 81 2 81 2 82 90 82 91 82 2 83 91 83 92 83 7 84 93 84 5 84 5 85 93 85 94 85 5 86 94 86 21 86 21 87 94 87 95 87 21 88 95 88 19 88 47 89 96 89 21 89 21 90 96 90 97 90 21 91 97 91 29 91 29 92 97 92 98 92 29 93 98 93 73 93 26 94 99 94 24 94 24 95 99 95 100 95 24 96 100 96 101 96 92 97 102 97 2 97 2 98 102 98 103 98 2 99 103 99 104 99 105 100 24 100 106 100 106 101 24 101 107 101 62 102 108 102 21 102 21 103 108 103 109 103 21 104 109 104 65 104 65 105 109 105 110 105 65 106 110 106 63 106 101 107 111 107 24 107 24 108 111 108 112 108 24 109 112 109 107 109 113 110 114 110 115 110 116 111 117 111 78 111 117 112 118 112 78 112 78 113 118 113 119 113 78 114 119 114 79 114 104 115 120 115 2 115 2 116 120 116 121 116 2 117 121 117 42 117 116 118 78 118 115 118 115 119 78 119 122 119 115 120 122 120 113 120 24 121 123 121 42 121 42 122 123 122 124 122 42 123 124 123 2 123 2 124 124 124 125 124 2 125 125 125 14 125 114 126 126 126 115 126 115 127 126 127 127 127 115 128 127 128 128 128 105 129 129 129 24 129 24 130 129 130 130 130 24 131 130 131 128 131 128 132 130 132 131 132 128 133 131 133 115 133 132 134 133 134 134 134 135 135 136 135 137 135 138 136 139 136 140 136 140 137 139 137 141 137 140 138 141 138 142 138 137 139 143 139 144 139 145 140 146 140 140 140 136 141 147 141 137 141 137 142 147 142 148 142 137 143 148 143 149 143 150 144 151 144 140 144 152 145 153 145 154 145 155 146 156 146 157 146 157 147 156 147 158 147 159 148 154 148 160 148 160 149 154 149 161 149 134 150 133 150 137 150 137 151 133 151 162 151 137 152 162 152 135 152 144 153 163 153 137 153 137 154 163 154 164 154 137 155 164 155 165 155 151 156 166 156 140 156 140 157 166 157 167 157 140 158 167 158 145 158 168 159 169 159 154 159 154 160 169 160 170 160 154 161 170 161 171 161 171 162 172 162 154 162 154 163 172 163 173 163 154 164 173 164 174 164 174 165 175 165 154 165 154 166 175 166 176 166 154 167 176 167 177 167 178 168 179 168 161 168 180 169 181 169 137 169 137 170 181 170 182 170 137 171 182 171 143 171 165 172 183 172 137 172 137 173 183 173 184 173 137 174 184 174 140 174 140 175 184 175 185 175 140 176 185 176 150 176 146 177 186 177 140 177 140 178 186 178 187 178 140 179 187 179 188 179 188 180 189 180 140 180 140 181 189 181 190 181 140 182 190 182 138 182 153 183 191 183 154 183 154 184 191 184 192 184 154 185 192 185 168 185 159 186 193 186 154 186 154 187 193 187 194 187 154 188 194 188 195 188 196 189 197 189 134 189 134 190 198 190 199 190 149 191 200 191 137 191 137 192 200 192 201 192 137 193 201 193 202 193 142 194 203 194 140 194 140 195 203 195 204 195 140 196 204 196 154 196 154 197 204 197 205 197 154 198 205 198 152 198 177 199 206 199 154 199 154 200 206 200 207 200 154 201 207 201 161 201 161 202 207 202 208 202 161 203 208 203 178 203 179 204 209 204 161 204 161 205 209 205 210 205 161 206 210 206 211 206 211 207 212 207 161 207 161 208 212 208 213 208 161 209 213 209 214 209 197 210 215 210 134 210 134 211 215 211 216 211 134 212 216 212 217 212 217 213 218 213 134 213 134 214 218 214 219 214 134 215 219 215 198 215 199 216 220 216 134 216 134 217 220 217 221 217 134 218 221 218 222 218 222 219 223 219 134 219 134 220 223 220 224 220 134 221 224 221 132 221 202 222 225 222 137 222 137 223 225 223 226 223 137 224 226 224 227 224 158 225 228 225 157 225 157 226 228 226 229 226 157 227 229 227 230 227 227 228 231 228 137 228 137 229 231 229 232 229 137 230 232 230 233 230 234 231 235 231 157 231 157 232 235 232 236 232 157 233 236 233 155 233 237 234 157 234 238 234 238 235 157 235 239 235 195 236 240 236 154 236 154 237 240 237 241 237 154 238 241 238 134 238 134 239 241 239 242 239 134 240 242 240 196 240 230 241 243 241 157 241 157 242 243 242 244 242 157 243 244 243 239 243 245 244 246 244 247 244 248 245 249 245 213 245 249 246 250 246 213 246 213 247 250 247 251 247 213 248 251 248 214 248 233 249 252 249 137 249 137 250 252 250 253 250 137 251 253 251 235 251 248 252 213 252 247 252 247 253 213 253 254 253 247 254 254 254 245 254 234 255 255 255 235 255 235 256 255 256 256 256 235 257 256 257 137 257 137 258 256 258 257 258 137 259 257 259 180 259 246 260 258 260 247 260 247 261 258 261 259 261 247 262 259 262 260 262 237 263 261 263 157 263 157 264 261 264 262 264 157 265 262 265 260 265 260 266 262 266 263 266 260 267 263 267 247 267 264 268 265 268 266 268 267 269 268 269 269 269 269 270 268 270 270 270 271 271 272 271 273 271 271 272 273 272 274 272 272 273 275 273 273 273 273 274 275 274 276 274 273 275 276 275 277 275 266 276 278 276 264 276 264 277 278 277 279 277 264 278 279 278 280 278 281 279 282 279 283 279 283 280 282 280 284 280 283 281 284 281 285 281 286 282 287 282 288 282 288 283 287 283 289 283 290 284 291 284 268 284 268 285 291 285 292 285 268 286 292 286 293 286 293 287 294 287 268 287 268 288 294 288 295 288 268 289 295 289 296 289 277 290 297 290 273 290 273 291 297 291 298 291 273 292 298 292 299 292 285 293 300 293 283 293 283 294 300 294 301 294 283 295 301 295 302 295 303 296 304 296 264 296 264 297 304 297 305 297 264 298 305 298 265 298 280 299 306 299 264 299 264 300 306 300 307 300 264 301 307 301 308 301 308 302 309 302 264 302 264 303 309 303 310 303 264 304 310 304 311 304 312 305 313 305 314 305 302 306 315 306 283 306 283 307 315 307 316 307 283 308 316 308 317 308 318 309 319 309 283 309 290 310 268 310 320 310 320 311 268 311 267 311 320 312 267 312 321 312 321 313 267 313 322 313 321 314 322 314 286 314 286 315 322 315 323 315 286 316 323 316 287 316 296 317 324 317 268 317 268 318 324 318 325 318 268 319 325 319 264 319 264 320 325 320 326 320 264 321 326 321 303 321 327 322 328 322 329 322 330 323 331 323 332 323 332 324 331 324 333 324 334 325 335 325 287 325 287 326 335 326 336 326 287 327 336 327 337 327 311 328 338 328 264 328 264 329 338 329 339 329 264 330 339 330 340 330 283 331 341 331 281 331 281 332 341 332 342 332 281 333 342 333 343 333 343 334 342 334 344 334 343 335 344 335 345 335 345 336 344 336 346 336 345 337 346 337 347 337 348 338 349 338 350 338 268 339 351 339 352 339 352 340 353 340 268 340 268 341 353 341 354 341 268 342 354 342 355 342 355 343 356 343 268 343 268 344 356 344 357 344 268 345 357 345 358 345 312 346 314 346 359 346 313 347 360 347 314 347 314 348 360 348 361 348 314 349 361 349 362 349 362 350 363 350 314 350 314 351 363 351 364 351 314 352 364 352 365 352 283 353 366 353 367 353 333 354 368 354 332 354 332 355 368 355 283 355 332 356 283 356 287 356 287 357 283 357 369 357 287 358 369 358 334 358 337 359 370 359 287 359 287 360 370 360 371 360 287 361 371 361 289 361 340 362 372 362 264 362 264 363 372 363 373 363 264 364 373 364 374 364 348 365 350 365 375 365 358 366 376 366 268 366 268 367 376 367 377 367 268 368 377 368 378 368 378 369 379 369 268 369 268 370 379 370 380 370 268 371 380 371 270 371 330 372 332 372 314 372 314 373 332 373 381 373 314 374 381 374 359 374 329 375 328 375 365 375 365 376 328 376 382 376 365 377 382 377 314 377 317 378 383 378 283 378 283 379 383 379 384 379 283 380 384 380 318 380 319 381 385 381 283 381 283 382 385 382 386 382 283 383 386 383 366 383 367 384 387 384 283 384 283 385 387 385 388 385 283 386 388 386 369 386 389 387 390 387 391 387 391 388 390 388 392 388 391 389 392 389 393 389 393 390 394 390 391 390 391 391 394 391 395 391 391 392 395 392 396 392 397 393 398 393 264 393 399 394 327 394 400 394 400 395 327 395 329 395 400 396 329 396 401 396 401 397 329 397 402 397 401 398 402 398 403 398 403 399 402 399 273 399 403 400 273 400 404 400 404 401 273 401 299 401 347 402 405 402 345 402 345 403 405 403 406 403 345 404 406 404 374 404 374 405 406 405 407 405 374 406 407 406 408 406 396 407 409 407 391 407 391 408 409 408 410 408 391 409 410 409 411 409 389 410 391 410 350 410 350 411 391 411 412 411 350 412 412 412 375 412 397 413 264 413 413 413 414 414 415 414 411 414 416 415 417 415 418 415 418 416 419 416 416 416 416 417 419 417 420 417 416 418 420 418 421 418 422 419 423 419 424 419 424 420 423 420 425 420 424 421 425 421 426 421 422 422 424 422 411 422 411 423 424 423 427 423 411 424 427 424 414 424 415 425 428 425 411 425 411 426 428 426 429 426 411 427 429 427 391 427 408 428 430 428 374 428 374 429 430 429 431 429 374 430 431 430 264 430 264 431 431 431 432 431 264 432 432 432 413 432 274 433 273 433 433 433 433 434 273 434 434 434 433 435 434 435 435 435 436 436 437 436 268 436 268 437 437 437 438 437 268 438 438 438 351 438 426 439 439 439 424 439 424 440 439 440 440 440 424 441 440 441 400 441 400 442 440 442 441 442 400 443 441 443 399 443 442 444 416 444 443 444 443 445 416 445 444 445 445 446 446 446 416 446 416 447 446 447 447 447 416 448 447 448 448 448 449 449 450 449 416 449 421 450 451 450 416 450 416 451 451 451 452 451 416 452 452 452 453 452 453 453 452 453 454 453 453 454 454 454 455 454 455 455 456 455 453 455 453 456 456 456 457 456 453 457 457 457 458 457 458 458 459 458 453 458 453 459 459 459 460 459 453 460 460 460 461 460 461 461 462 461 453 461 453 462 462 462 463 462 453 463 463 463 464 463 435 464 465 464 433 464 433 465 465 465 466 465 433 466 466 466 467 466 436 467 268 467 468 467 468 468 268 468 453 468 468 469 453 469 469 469 470 470 471 470 416 470 416 471 471 471 472 471 416 472 472 472 444 472 442 473 473 473 416 473 416 474 473 474 474 474 416 475 474 475 445 475 464 476 475 476 453 476 453 477 475 477 476 477 453 478 476 478 477 478 398 479 478 479 264 479 264 480 478 480 479 480 264 481 479 481 416 481 416 482 479 482 480 482 416 483 480 483 470 483 448 484 481 484 416 484 416 485 481 485 482 485 416 486 482 486 483 486 450 487 484 487 416 487 416 488 484 488 485 488 416 489 485 489 417 489 486 490 487 490 453 490 349 491 488 491 350 491 350 492 488 492 489 492 350 493 489 493 490 493 467 494 491 494 433 494 433 495 491 495 492 495 433 496 492 496 493 496 493 497 492 497 494 497 493 498 494 498 495 498 487 499 496 499 453 499 453 500 496 500 497 500 453 501 497 501 498 501 483 502 499 502 416 502 416 503 499 503 500 503 416 504 500 504 501 504 477 505 502 505 453 505 453 506 502 506 503 506 453 507 503 507 504 507 504 508 505 508 453 508 453 509 505 509 506 509 453 510 506 510 507 510 498 511 508 511 453 511 453 512 508 512 509 512 453 513 509 513 469 513 490 514 510 514 350 514 350 515 510 515 511 515 350 516 511 516 501 516 501 517 511 517 512 517 501 518 512 518 416 518 416 519 512 519 513 519 416 520 513 520 449 520 495 521 514 521 493 521 493 522 514 522 515 522 493 523 515 523 516 523 517 524 518 524 453 524 453 525 518 525 519 525 453 526 519 526 486 526 516 527 520 527 493 527 493 528 520 528 521 528 493 529 521 529 507 529 507 530 521 530 522 530 507 531 522 531 453 531 453 532 522 532 523 532 453 533 523 533 517 533 524 534 525 534 526 534 526 535 525 535 527 535 528 536 529 536 530 536 268 537 531 537 528 537 528 538 531 538 532 538 528 539 532 539 533 539 534 540 528 540 535 540 535 541 528 541 536 541 537 542 538 542 539 542 268 543 264 543 531 543 531 544 264 544 540 544 531 545 540 545 525 545 525 546 540 546 541 546 525 547 541 547 542 547 543 548 544 548 545 548 545 549 544 549 546 549 543 550 545 550 526 550 526 551 545 551 547 551 526 552 547 552 524 552 533 553 548 553 528 553 528 554 548 554 549 554 528 555 549 555 529 555 530 556 550 556 528 556 528 557 550 557 551 557 528 558 551 558 536 558 552 559 553 559 528 559 528 560 553 560 539 560 528 561 539 561 554 561 554 562 539 562 538 562 555 563 556 563 525 563 525 564 556 564 557 564 525 565 557 565 527 565 534 566 558 566 528 566 528 567 558 567 559 567 528 568 559 568 560 568 546 569 561 569 545 569 545 570 561 570 562 570 545 571 562 571 563 571 560 572 564 572 528 572 528 573 564 573 565 573 528 574 565 574 552 574 566 575 567 575 568 575 568 576 567 576 569 576 568 577 569 577 570 577 566 578 568 578 539 578 539 579 568 579 571 579 539 580 571 580 537 580 542 581 572 581 525 581 525 582 572 582 573 582 525 583 573 583 574 583 574 584 575 584 525 584 525 585 575 585 576 585 525 586 576 586 555 586 563 587 562 587 577 587 577 588 562 588 578 588 577 589 578 589 579 589 579 590 580 590 577 590 577 591 580 591 581 591 577 592 581 592 582 592 582 593 581 593 583 593 264 594 416 594 137 594 584 595 540 595 585 595 585 596 540 596 264 596 585 597 264 597 140 597 140 598 264 598 137 598 453 599 65 599 2 599 453 600 2 600 416 600 416 601 2 601 134 601 416 602 134 602 137 602 268 603 528 603 586 603 65 604 453 604 21 604 21 605 453 605 268 605 21 606 268 606 587 606 587 607 268 607 586 607 94 608 380 608 95 608 95 609 380 609 379 609 95 610 379 610 19 610 19 611 379 611 378 611 19 612 378 612 20 612 20 613 378 613 377 613 20 614 377 614 58 614 58 615 377 615 376 615 58 616 376 616 59 616 59 617 376 617 358 617 59 618 358 618 22 618 22 619 358 619 357 619 22 620 357 620 23 620 23 621 357 621 356 621 23 622 356 622 36 622 36 623 356 623 355 623 36 624 355 624 37 624 37 625 355 625 354 625 37 626 354 626 38 626 38 627 354 627 353 627 38 628 353 628 39 628 39 629 353 629 352 629 39 630 352 630 40 630 40 631 352 631 351 631 40 632 351 632 41 632 41 633 351 633 438 633 41 634 438 634 45 634 45 635 438 635 437 635 45 636 437 636 46 636 46 637 437 637 436 637 46 638 436 638 47 638 47 639 436 639 468 639 47 640 468 640 96 640 96 641 468 641 469 641 96 642 469 642 97 642 97 643 469 643 509 643 97 644 509 644 98 644 98 645 509 645 508 645 98 646 508 646 73 646 73 647 508 647 498 647 73 648 498 648 74 648 74 649 498 649 497 649 74 650 497 650 75 650 75 651 497 651 496 651 75 652 496 652 76 652 76 653 496 653 487 653 76 654 487 654 77 654 77 655 487 655 486 655 77 656 486 656 78 656 78 657 486 657 519 657 78 658 519 658 122 658 122 659 519 659 518 659 122 660 518 660 113 660 113 661 518 661 517 661 113 662 517 662 114 662 114 663 517 663 523 663 114 664 523 664 126 664 126 665 523 665 522 665 126 666 522 666 127 666 127 667 522 667 521 667 127 668 521 668 128 668 128 669 521 669 520 669 128 670 520 670 24 670 24 671 520 671 516 671 24 672 516 672 123 672 123 673 516 673 515 673 123 674 515 674 124 674 124 675 515 675 514 675 124 676 514 676 125 676 125 677 514 677 495 677 125 678 495 678 14 678 14 679 495 679 494 679 14 680 494 680 15 680 15 681 494 681 492 681 15 682 492 682 48 682 48 683 492 683 491 683 48 684 491 684 49 684 49 685 491 685 467 685 49 686 467 686 16 686 16 687 467 687 466 687 16 688 466 688 17 688 17 689 466 689 465 689 17 690 465 690 18 690 18 691 465 691 435 691 18 692 435 692 30 692 30 693 435 693 434 693 30 694 434 694 31 694 31 695 434 695 273 695 31 696 273 696 32 696 32 697 273 697 402 697 32 698 402 698 50 698 50 699 402 699 329 699 50 700 329 700 51 700 51 701 329 701 365 701 51 702 365 702 52 702 52 703 365 703 364 703 52 704 364 704 33 704 33 705 364 705 363 705 33 706 363 706 34 706 34 707 363 707 362 707 34 708 362 708 35 708 35 709 362 709 361 709 35 710 361 710 9 710 9 711 361 711 360 711 9 712 360 712 10 712 10 713 360 713 313 713 10 714 313 714 53 714 53 715 313 715 312 715 53 716 312 716 54 716 54 717 312 717 359 717 54 718 359 718 55 718 55 719 359 719 381 719 55 720 381 720 56 720 56 721 381 721 332 721 56 722 332 722 57 722 57 723 332 723 287 723 57 724 287 724 3 724 3 725 287 725 323 725 3 726 323 726 4 726 4 727 323 727 322 727 4 728 322 728 6 728 6 729 322 729 267 729 6 730 267 730 7 730 7 731 267 731 269 731 7 732 269 732 93 732 93 733 269 733 270 733 93 734 270 734 94 734 94 735 270 735 380 735 130 736 401 736 131 736 131 737 401 737 403 737 131 738 403 738 115 738 115 739 403 739 404 739 115 740 404 740 116 740 116 741 404 741 299 741 116 742 299 742 117 742 117 743 299 743 298 743 117 744 298 744 118 744 118 745 298 745 297 745 118 746 297 746 119 746 119 747 297 747 277 747 119 748 277 748 79 748 79 749 277 749 276 749 79 750 276 750 29 750 29 751 276 751 275 751 29 752 275 752 28 752 28 753 275 753 272 753 28 754 272 754 27 754 27 755 272 755 271 755 27 756 271 756 60 756 60 757 271 757 274 757 60 758 274 758 61 758 61 759 274 759 433 759 61 760 433 760 62 760 62 761 433 761 493 761 62 762 493 762 108 762 108 763 493 763 507 763 108 764 507 764 109 764 109 765 507 765 506 765 109 766 506 766 110 766 110 767 506 767 505 767 110 768 505 768 63 768 63 769 505 769 504 769 63 770 504 770 64 770 64 771 504 771 503 771 64 772 503 772 80 772 80 773 503 773 502 773 80 774 502 774 81 774 81 775 502 775 477 775 81 776 477 776 82 776 82 777 477 777 476 777 82 778 476 778 83 778 83 779 476 779 475 779 83 780 475 780 84 780 84 781 475 781 464 781 84 782 464 782 66 782 66 783 464 783 463 783 66 784 463 784 67 784 67 785 463 785 462 785 67 786 462 786 85 786 85 787 462 787 461 787 85 788 461 788 86 788 86 789 461 789 460 789 86 790 460 790 87 790 87 791 460 791 459 791 87 792 459 792 88 792 88 793 459 793 458 793 88 794 458 794 89 794 89 795 458 795 457 795 89 796 457 796 68 796 68 797 457 797 456 797 68 798 456 798 69 798 69 799 456 799 455 799 69 800 455 800 8 800 8 801 455 801 454 801 8 802 454 802 0 802 0 803 454 803 452 803 0 804 452 804 1 804 1 805 452 805 451 805 1 806 451 806 11 806 11 807 451 807 421 807 11 808 421 808 12 808 12 809 421 809 420 809 12 810 420 810 13 810 13 811 420 811 419 811 13 812 419 812 70 812 70 813 419 813 418 813 70 814 418 814 71 814 71 815 418 815 417 815 71 816 417 816 72 816 72 817 417 817 485 817 72 818 485 818 90 818 90 819 485 819 484 819 90 820 484 820 91 820 91 821 484 821 450 821 91 822 450 822 92 822 92 823 450 823 449 823 92 824 449 824 102 824 102 825 449 825 513 825 102 826 513 826 103 826 103 827 513 827 512 827 103 828 512 828 104 828 104 829 512 829 511 829 104 830 511 830 120 830 120 831 511 831 510 831 120 832 510 832 121 832 121 833 510 833 490 833 121 834 490 834 42 834 42 835 490 835 489 835 42 836 489 836 43 836 43 837 489 837 488 837 43 838 488 838 44 838 44 839 488 839 349 839 44 840 349 840 25 840 25 841 349 841 348 841 25 842 348 842 26 842 26 843 348 843 375 843 26 844 375 844 99 844 99 845 375 845 412 845 99 846 412 846 100 846 100 847 412 847 391 847 100 848 391 848 101 848 101 849 391 849 429 849 101 850 429 850 111 850 111 851 429 851 428 851 111 852 428 852 112 852 112 853 428 853 415 853 112 854 415 854 107 854 107 855 415 855 414 855 107 856 414 856 106 856 106 857 414 857 427 857 106 858 427 858 105 858 105 859 427 859 424 859 105 860 424 860 129 860 129 861 424 861 400 861 129 862 400 862 130 862 130 863 400 863 401 863 262 864 344 864 263 864 263 865 344 865 342 865 263 866 342 866 247 866 247 867 342 867 341 867 247 868 341 868 248 868 248 869 341 869 283 869 248 870 283 870 249 870 249 871 283 871 368 871 249 872 368 872 250 872 250 873 368 873 333 873 250 874 333 874 251 874 251 875 333 875 331 875 251 876 331 876 214 876 214 877 331 877 330 877 214 878 330 878 161 878 161 879 330 879 314 879 161 880 314 880 160 880 160 881 314 881 382 881 160 882 382 882 159 882 159 883 382 883 328 883 159 884 328 884 193 884 193 885 328 885 327 885 193 886 327 886 194 886 194 887 327 887 399 887 194 888 399 888 195 888 195 889 399 889 441 889 195 890 441 890 240 890 240 891 441 891 440 891 240 892 440 892 241 892 241 893 440 893 439 893 241 894 439 894 242 894 242 895 439 895 426 895 242 896 426 896 196 896 196 897 426 897 425 897 196 898 425 898 197 898 197 899 425 899 423 899 197 900 423 900 215 900 215 901 423 901 422 901 215 902 422 902 216 902 216 903 422 903 411 903 216 904 411 904 217 904 217 905 411 905 410 905 217 906 410 906 218 906 218 907 410 907 409 907 218 908 409 908 219 908 219 909 409 909 396 909 219 910 396 910 198 910 198 911 396 911 395 911 198 912 395 912 199 912 199 913 395 913 394 913 199 914 394 914 220 914 220 915 394 915 393 915 220 916 393 916 221 916 221 917 393 917 392 917 221 918 392 918 222 918 222 919 392 919 390 919 222 920 390 920 223 920 223 921 390 921 389 921 223 922 389 922 224 922 224 923 389 923 350 923 224 924 350 924 132 924 132 925 350 925 501 925 132 926 501 926 133 926 133 927 501 927 500 927 133 928 500 928 162 928 162 929 500 929 499 929 162 930 499 930 135 930 135 931 499 931 483 931 135 932 483 932 136 932 136 933 483 933 482 933 136 934 482 934 147 934 147 935 482 935 481 935 147 936 481 936 148 936 148 937 481 937 448 937 148 938 448 938 149 938 149 939 448 939 447 939 149 940 447 940 200 940 200 941 447 941 446 941 200 942 446 942 201 942 201 943 446 943 445 943 201 944 445 944 202 944 202 945 445 945 474 945 202 946 474 946 225 946 225 947 474 947 473 947 225 948 473 948 226 948 226 949 473 949 442 949 226 950 442 950 227 950 227 951 442 951 443 951 227 952 443 952 231 952 231 953 443 953 444 953 231 954 444 954 232 954 232 955 444 955 472 955 232 956 472 956 233 956 233 957 472 957 471 957 233 958 471 958 252 958 252 959 471 959 470 959 252 960 470 960 253 960 253 961 470 961 480 961 253 962 480 962 235 962 235 963 480 963 479 963 235 964 479 964 236 964 236 965 479 965 478 965 236 966 478 966 155 966 155 967 478 967 398 967 155 968 398 968 156 968 156 969 398 969 397 969 156 970 397 970 158 970 158 971 397 971 413 971 158 972 413 972 228 972 228 973 413 973 432 973 228 974 432 974 229 974 229 975 432 975 431 975 229 976 431 976 230 976 230 977 431 977 430 977 230 978 430 978 243 978 243 979 430 979 408 979 243 980 408 980 244 980 244 981 408 981 407 981 244 982 407 982 239 982 239 983 407 983 406 983 239 984 406 984 238 984 238 985 406 985 405 985 238 986 405 986 237 986 237 987 405 987 347 987 237 988 347 988 261 988 261 989 347 989 346 989 261 990 346 990 262 990 262 991 346 991 344 991 204 992 305 992 205 992 205 993 305 993 304 993 205 994 304 994 152 994 152 995 304 995 303 995 152 996 303 996 153 996 153 997 303 997 326 997 153 998 326 998 191 998 191 999 326 999 325 999 191 1000 325 1000 192 1000 192 1001 325 1001 324 1001 192 1002 324 1002 168 1002 168 1003 324 1003 296 1003 168 1004 296 1004 169 1004 169 1005 296 1005 295 1005 169 1006 295 1006 170 1006 170 1007 295 1007 294 1007 170 1008 294 1008 171 1008 171 1009 294 1009 293 1009 171 1010 293 1010 172 1010 172 1011 293 1011 292 1011 172 1012 292 1012 173 1012 173 1013 292 1013 291 1013 173 1014 291 1014 174 1014 174 1015 291 1015 290 1015 174 1016 290 1016 175 1016 175 1017 290 1017 320 1017 175 1018 320 1018 176 1018 176 1019 320 1019 321 1019 176 1020 321 1020 177 1020 177 1021 321 1021 286 1021 177 1022 286 1022 206 1022 206 1023 286 1023 288 1023 206 1024 288 1024 207 1024 207 1025 288 1025 289 1025 207 1026 289 1026 208 1026 208 1027 289 1027 371 1027 208 1028 371 1028 178 1028 178 1029 371 1029 370 1029 178 1030 370 1030 179 1030 179 1031 370 1031 337 1031 179 1032 337 1032 209 1032 209 1033 337 1033 336 1033 209 1034 336 1034 210 1034 210 1035 336 1035 335 1035 210 1036 335 1036 211 1036 211 1037 335 1037 334 1037 211 1038 334 1038 212 1038 212 1039 334 1039 369 1039 212 1040 369 1040 213 1040 213 1041 369 1041 388 1041 213 1042 388 1042 254 1042 254 1043 388 1043 387 1043 254 1044 387 1044 245 1044 245 1045 387 1045 367 1045 245 1046 367 1046 246 1046 246 1047 367 1047 366 1047 246 1048 366 1048 258 1048 258 1049 366 1049 386 1049 258 1050 386 1050 259 1050 259 1051 386 1051 385 1051 259 1052 385 1052 260 1052 260 1053 385 1053 319 1053 260 1054 319 1054 157 1054 157 1055 319 1055 318 1055 157 1056 318 1056 234 1056 234 1057 318 1057 384 1057 234 1058 384 1058 255 1058 255 1059 384 1059 383 1059 255 1060 383 1060 256 1060 256 1061 383 1061 317 1061 256 1062 317 1062 257 1062 257 1063 317 1063 316 1063 257 1064 316 1064 180 1064 180 1065 316 1065 315 1065 180 1066 315 1066 181 1066 181 1067 315 1067 302 1067 181 1068 302 1068 182 1068 182 1069 302 1069 301 1069 182 1070 301 1070 143 1070 143 1071 301 1071 300 1071 143 1072 300 1072 144 1072 144 1073 300 1073 285 1073 144 1074 285 1074 163 1074 163 1075 285 1075 284 1075 163 1076 284 1076 164 1076 164 1077 284 1077 282 1077 164 1078 282 1078 165 1078 165 1079 282 1079 281 1079 165 1080 281 1080 183 1080 183 1081 281 1081 343 1081 183 1082 343 1082 184 1082 184 1083 343 1083 345 1083 184 1084 345 1084 185 1084 185 1085 345 1085 374 1085 185 1086 374 1086 150 1086 150 1087 374 1087 373 1087 150 1088 373 1088 151 1088 151 1089 373 1089 372 1089 151 1090 372 1090 166 1090 166 1091 372 1091 340 1091 166 1092 340 1092 167 1092 167 1093 340 1093 339 1093 167 1094 339 1094 145 1094 145 1095 339 1095 338 1095 145 1096 338 1096 146 1096 146 1097 338 1097 311 1097 146 1098 311 1098 186 1098 186 1099 311 1099 310 1099 186 1100 310 1100 187 1100 187 1101 310 1101 309 1101 187 1102 309 1102 188 1102 188 1103 309 1103 308 1103 188 1104 308 1104 189 1104 189 1105 308 1105 307 1105 189 1106 307 1106 190 1106 190 1107 307 1107 306 1107 190 1108 306 1108 138 1108 138 1109 306 1109 280 1109 138 1110 280 1110 139 1110 139 1111 280 1111 279 1111 139 1112 279 1112 141 1112 141 1113 279 1113 278 1113 141 1114 278 1114 142 1114 142 1115 278 1115 266 1115 142 1116 266 1116 203 1116 203 1117 266 1117 265 1117 203 1118 265 1118 204 1118 204 1119 265 1119 305 1119 584 1120 585 1120 588 1120 589 1121 590 1121 591 1121 592 1122 593 1122 590 1122 588 1123 594 1123 584 1123 584 1124 594 1124 590 1124 584 1125 590 1125 595 1125 595 1126 590 1126 593 1126 596 1127 591 1127 597 1127 596 1128 598 1128 591 1128 591 1129 598 1129 599 1129 591 1130 599 1130 589 1130 589 1131 600 1131 590 1131 590 1132 600 1132 601 1132 590 1133 601 1133 602 1133 602 1134 603 1134 590 1134 590 1135 603 1135 604 1135 590 1136 604 1136 605 1136 605 1137 606 1137 590 1137 590 1138 606 1138 607 1138 590 1139 607 1139 592 1139 597 1140 608 1140 596 1140 596 1141 608 1141 609 1141 596 1142 609 1142 610 1142 610 1143 611 1143 596 1143 596 1144 611 1144 612 1144 596 1145 612 1145 613 1145 613 1146 614 1146 596 1146 596 1147 614 1147 615 1147 596 1148 615 1148 616 1148 617 1149 618 1149 619 1149 620 1150 621 1150 622 1150 623 1151 587 1151 624 1151 624 1152 587 1152 586 1152 625 1153 626 1153 586 1153 586 1154 626 1154 627 1154 586 1155 628 1155 629 1155 630 1156 631 1156 586 1156 586 1157 631 1157 632 1157 586 1158 632 1158 633 1158 627 1159 634 1159 586 1159 586 1160 634 1160 635 1160 586 1161 635 1161 636 1161 629 1162 637 1162 586 1162 586 1163 637 1163 638 1163 586 1164 638 1164 624 1164 586 1165 639 1165 630 1165 630 1166 639 1166 640 1166 630 1167 640 1167 641 1167 642 1168 643 1168 644 1168 644 1169 643 1169 645 1169 641 1170 646 1170 630 1170 630 1171 646 1171 645 1171 630 1172 645 1172 647 1172 647 1173 645 1173 643 1173 633 1174 648 1174 586 1174 586 1175 648 1175 649 1175 586 1176 649 1176 625 1176 636 1177 650 1177 586 1177 586 1178 650 1178 651 1178 586 1179 651 1179 628 1179 531 1180 525 1180 652 1180 652 1181 525 1181 653 1181 619 1182 134 1182 622 1182 622 1183 134 1183 2 1183 652 1184 653 1184 617 1184 619 1185 622 1185 617 1185 617 1186 622 1186 621 1186 617 1187 621 1187 652 1187 653 1188 654 1188 617 1188 617 1189 654 1189 655 1189 617 1190 655 1190 656 1190 657 1191 658 1191 621 1191 621 1192 658 1192 659 1192 621 1193 659 1193 652 1193 658 1194 657 1194 532 1194 532 1195 657 1195 624 1195 532 1196 624 1196 533 1196 531 1197 652 1197 532 1197 532 1198 652 1198 659 1198 532 1199 659 1199 658 1199 624 1200 638 1200 533 1200 533 1201 638 1201 637 1201 533 1202 637 1202 548 1202 548 1203 637 1203 629 1203 548 1204 629 1204 549 1204 549 1205 629 1205 628 1205 549 1206 628 1206 529 1206 529 1207 628 1207 651 1207 529 1208 651 1208 530 1208 530 1209 651 1209 650 1209 530 1210 650 1210 550 1210 550 1211 650 1211 636 1211 550 1212 636 1212 551 1212 551 1213 636 1213 635 1213 551 1214 635 1214 536 1214 536 1215 635 1215 634 1215 536 1216 634 1216 535 1216 535 1217 634 1217 627 1217 535 1218 627 1218 534 1218 534 1219 627 1219 626 1219 534 1220 626 1220 558 1220 558 1221 626 1221 625 1221 558 1222 625 1222 559 1222 559 1223 625 1223 649 1223 559 1224 649 1224 560 1224 560 1225 649 1225 648 1225 560 1226 648 1226 564 1226 564 1227 648 1227 633 1227 564 1228 633 1228 565 1228 565 1229 633 1229 632 1229 565 1230 632 1230 552 1230 552 1231 632 1231 631 1231 552 1232 631 1232 553 1232 553 1233 631 1233 630 1233 553 1234 630 1234 539 1234 539 1235 630 1235 647 1235 539 1236 647 1236 566 1236 566 1237 647 1237 643 1237 566 1238 643 1238 567 1238 567 1239 643 1239 642 1239 567 1240 642 1240 569 1240 569 1241 642 1241 644 1241 569 1242 644 1242 570 1242 570 1243 644 1243 645 1243 570 1244 645 1244 568 1244 568 1245 645 1245 646 1245 568 1246 646 1246 571 1246 571 1247 646 1247 641 1247 571 1248 641 1248 537 1248 537 1249 641 1249 640 1249 537 1250 640 1250 538 1250 538 1251 640 1251 639 1251 538 1252 639 1252 554 1252 554 1253 639 1253 586 1253 554 1254 586 1254 528 1254 590 1255 594 1255 524 1255 653 1256 525 1256 654 1256 654 1257 525 1257 524 1257 654 1258 524 1258 655 1258 655 1259 524 1259 594 1259 655 1260 594 1260 656 1260 524 1261 547 1261 590 1261 590 1262 547 1262 545 1262 590 1263 545 1263 591 1263 591 1264 545 1264 563 1264 591 1265 563 1265 597 1265 597 1266 563 1266 577 1266 597 1267 577 1267 608 1267 608 1268 577 1268 582 1268 608 1269 582 1269 609 1269 609 1270 582 1270 583 1270 609 1271 583 1271 610 1271 610 1272 583 1272 581 1272 610 1273 581 1273 611 1273 611 1274 581 1274 580 1274 611 1275 580 1275 612 1275 612 1276 580 1276 579 1276 612 1277 579 1277 613 1277 613 1278 579 1278 578 1278 613 1279 578 1279 614 1279 614 1280 578 1280 562 1280 614 1281 562 1281 615 1281 615 1282 562 1282 561 1282 615 1283 561 1283 616 1283 616 1284 561 1284 546 1284 616 1285 546 1285 596 1285 596 1286 546 1286 544 1286 596 1287 544 1287 598 1287 598 1288 544 1288 543 1288 598 1289 543 1289 599 1289 599 1290 543 1290 526 1290 599 1291 526 1291 589 1291 589 1292 526 1292 527 1292 589 1293 527 1293 600 1293 600 1294 527 1294 557 1294 600 1295 557 1295 601 1295 601 1296 557 1296 556 1296 601 1297 556 1297 602 1297 602 1298 556 1298 555 1298 602 1299 555 1299 603 1299 603 1300 555 1300 576 1300 603 1301 576 1301 604 1301 604 1302 576 1302 575 1302 604 1303 575 1303 605 1303 605 1304 575 1304 574 1304 605 1305 574 1305 606 1305 606 1306 574 1306 573 1306 606 1307 573 1307 607 1307 607 1308 573 1308 572 1308 607 1309 572 1309 592 1309 592 1310 572 1310 542 1310 592 1311 542 1311 593 1311 593 1312 542 1312 541 1312 593 1313 541 1313 595 1313 595 1314 541 1314 540 1314 595 1315 540 1315 584 1315 660 1316 588 1316 154 1316 154 1317 588 1317 585 1317 154 1318 585 1318 140 1318 661 1319 5 1319 623 1319 623 1320 5 1320 21 1320 623 1321 21 1321 587 1321 660 1322 154 1322 618 1322 618 1323 154 1323 134 1323 618 1324 134 1324 619 1324 656 1325 594 1325 617 1325 617 1326 594 1326 588 1326 617 1327 588 1327 618 1327 618 1328 588 1328 660 1328 661 1329 620 1329 5 1329 5 1330 620 1330 622 1330 5 1331 622 1331 2 1331 620 1332 661 1332 621 1332 621 1333 661 1333 623 1333 621 1334 623 1334 657 1334 657 1335 623 1335 624 1335</p>
        </triangles>
      </mesh>
    </geometry>
    </library_geometries>
  <library_visual_scenes>
    <visual_scene id="Scene" name="Scene">
      <node id="gripper_l" name="gripper_l" type="NODE">
        <matrix sid="transform">1 0 0 0 0 1 0 0 0 0 1 0 0 0 0 1</matrix>
        <instance_geometry url="#gripper_l-mesh" name="gripper_l" />
      </node>
      </visual_scene>
  </library_visual_scenes>
  <scene>
    <instance_visual_scene url="#Scene" />
  </scene>
</COLLADA>