<?xml version='1.0' encoding='utf-8'?>
<COLLADA xmlns="http://www.collada.org/2005/11/COLLADASchema" version="1.4.1">
  <asset>
    <contributor>
      <author>Blender User</author>
      <authoring_tool>Blender 4.5.7 LTS commit date:2026-02-16, commit time:13:34, hash:a9874eeece8d</authoring_tool>
    </contributor>
    <created>2026-06-15T02:30:00</created>
    <modified>2026-06-16T00:38:35</modified>
    <unit name="meter" meter="1" />
    <up_axis>Z_UP</up_axis>
  </asset>
  <library_cameras>
    <camera id="Camera-camera" name="Camera">
      <optics>
        <technique_common>
          <perspective>
            <xfov sid="xfov">39.59775</xfov>
            <aspect_ratio>1.777778</aspect_ratio>
            <znear sid="znear">0.1</znear>
            <zfar sid="zfar">100</zfar>
          </perspective>
        </technique_common>
      </optics>
      <extra>
        <technique profile="blender">
          <shiftx sid="shiftx" type="float">0</shiftx>
          <shifty sid="shifty" type="float">0</shifty>
          <dof_distance sid="dof_distance" type="float">10</dof_distance>
        </technique>
      </extra>
    </camera>
  </library_cameras>
  <library_lights>
    <light id="Light-light" name="Light">
      <technique_common>
        <point>
          <color sid="color">1000 1000 1000</color>
          <constant_attenuation>1</constant_attenuation>
          <linear_attenuation>0</linear_attenuation>
          <quadratic_attenuation>0</quadratic_attenuation>
        </point>
      </technique_common>
      <extra>
        <technique profile="blender">
          <type sid="type" type="int">0</type>
          <flag sid="flag" type="int">0</flag>
          <mode sid="mode" type="int">2097153</mode>
          <red sid="red" type="float">1</red>
          <green sid="green" type="float">1</green>
          <blue sid="blue" type="float">1</blue>
          <energy sid="blender_energy" type="float">1000</energy>
          <spotsize sid="spotsize" type="float">75</spotsize>
          <spotblend sid="spotblend" type="float">0.15</spotblend>
          <clipsta sid="clipsta" type="float">0.04999995</clipsta>
          <clipend sid="clipend" type="float">40</clipend>
          <radius sid="radius" type="float">0.1</radius>
          <area_shape sid="area_shape" type="int">1</area_shape>
          <area_size sid="area_size" type="float">0.1</area_size>
          <area_sizey sid="area_sizey" type="float">0.1</area_sizey>
          <area_sizez sid="area_sizez" type="float">1</area_sizez>
        </technique>
      </extra>
    </light>
  </library_lights>
  <library_geometries>
    <geometry id="link_6-mesh" name="link_6">
      <mesh>
        <source id="link_6-mesh-positions">
          <float_array id="link_6-mesh-positions-array" count="585">0.03989815 0.01599997 0.02109253 0.03989815 -0.01599997 0.02109253 -0.03989815 0.01599997 0.02109253 -0.03989815 -0.01599997 0.02109253 0.03989815 0.01599997 0.03999996 0.03989815 -0.01599997 0.03999996 -0.03989815 0.01599997 0.03999996 -0.03989815 -0.01599997 0.03999996 -0.05049997 -0.01599997 0.04049998 -0.05049997 -0.01599997 0.06949996 -0.05199998 -0.01559805 0.06949996 -0.05199998 -0.01559805 0.04049998 -0.05309802 -0.01449996 0.06949996 -0.05309802 -0.01449996 0.04049998 -0.05349999 -0.01299995 0.06949996 -0.05349999 -0.01299995 0.04049998 -0.05349999 0.01299995 0.04049998 -0.05349999 0.01299995 0.06949996 -0.05309802 0.01449996 0.06949996 -0.05309802 0.01449996 0.04049998 -0.05199998 0.01559805 0.06949996 -0.05199998 0.01559805 0.04049998 -0.05049997 0.01599997 0.06949996 -0.05049997 0.01599997 0.04049998 0.05049997 0.01599997 0.04049998 0.05049997 0.01599997 0.06949996 0.05199998 0.01559805 0.06949996 0.05199998 0.01559805 0.04049998 0.05309802 0.01449996 0.06949996 0.05309802 0.01449996 0.04049998 0.05349999 0.01299995 0.06949996 0.05349999 0.01299995 0.04049998 0.05349999 -0.01299995 0.04049998 0.05349999 -0.01299995 0.06949996 0.05309802 -0.01449996 0.06949996 0.05309802 -0.01449996 0.04049998 0.05199998 -0.01559805 0.06949996 0.05199998 -0.01559805 0.04049998 0.05049997 -0.01599997 0.06949996 0.05049997 -0.01599997 0.04049998 -0.023 0 0.004999995 -0.02265053 0.003993868 0.02109253 -0.02265053 0.003993868 0.004999995 -0.02161288 0.007866442 0.02109253 -0.02161288 0.007866442 0.004999995 -0.01991856 0.0115 0.02109253 -0.01991856 0.0115 0.004999995 -0.01761901 0.01478409 0.02109253 -0.01761901 0.01478409 0.004999995 -0.01478409 0.01761901 0.02109253 -0.01478409 0.01761901 0.004999995 -0.0115 0.01991856 0.02109253 -0.0115 0.01991856 0.004999995 -0.007866442 0.02161288 0.02109253 -0.007866442 0.02161288 0.004999995 -0.003993868 0.02265053 0.02109253 -0.003993868 0.02265053 0.004999995 0 0.023 0.02109253 0 0.023 0.004999995 0.003993868 0.02265053 0.02109253 0.003993868 0.02265053 0.004999995 0.007866442 0.02161288 0.02109253 0.007866442 0.02161288 0.004999995 0.0115 0.01991856 0.02109253 0.0115 0.01991856 0.004999995 0.01478409 0.01761901 0.02109253 0.01478409 0.01761901 0.004999995 0.01761901 0.01478409 0.02109253 0.01761901 0.01478409 0.004999995 0.01991856 0.0115 0.02109253 0.01991856 0.0115 0.004999995 0.02161288 0.007866442 0.02109253 0.02161288 0.007866442 0.004999995 0.02265053 0.003993868 0.02109253 0.02265053 0.003993868 0.004999995 0.023 0 0.02109253 0.023 0 0.004999995 0.02265053 -0.003993868 0.02109253 0.02265053 -0.003993868 0.004999995 0.02161288 -0.007866442 0.02109253 0.02161288 -0.007866442 0.004999995 0.01991856 -0.0115 0.02109253 0.01991856 -0.0115 0.004999995 0.01761901 -0.01478409 0.02109253 0.01761901 -0.01478409 0.004999995 0.01478409 -0.01761901 0.02109253 0.01478409 -0.01761901 0.004999995 0.0115 -0.01991856 0.02109253 0.0115 -0.01991856 0.004999995 0.007866442 -0.02161288 0.02109253 0.007866442 -0.02161288 0.004999995 0.003993868 -0.02265053 0.02109253 0.003993868 -0.02265053 0.004999995 0 -0.023 0.02109253 0 -0.023 0.004999995 -0.003993868 -0.02265053 0.02109253 -0.003993868 -0.02265053 0.004999995 -0.007866442 -0.02161288 0.02109253 -0.007866442 -0.02161288 0.004999995 -0.0115 -0.01991856 0.02109253 -0.0115 -0.01991856 0.004999995 -0.01478409 -0.01761901 0.02109253 -0.01478409 -0.01761901 0.004999995 -0.01761901 -0.01478409 0.02109253 -0.01761901 -0.01478409 0.004999995 -0.01991856 -0.0115 0.02109253 -0.01991856 -0.0115 0.004999995 -0.02161288 -0.007866442 0.02109253 -0.02161288 -0.007866442 0.004999995 -0.02265053 -0.003993868 0.02109253 -0.02265053 -0.003993868 0.004999995 -0.023 0 0.02109253 0 0 0.02109253 0 0.023 0.02109253 0.023 0 0.02109253 0 -0.023 0.02109253 -0.02499997 0 0 -0.02465903 0.004114806 0.004999995 -0.02465903 0.004114806 0 -0.0236454 0.008117437 0.004999995 -0.0236454 0.008117437 0 -0.02198684 0.01189863 0.004999995 -0.02198684 0.01189863 0 -0.01972848 0.01535528 0.004999995 -0.01972848 0.01535528 0 -0.01693201 0.01839309 0.004999995 -0.01693201 0.01839309 0 -0.01367366 0.02092915 0.004999995 -0.01367366 0.02092915 0 -0.01004236 0.02289432 0.004999995 -0.01004236 0.02289432 0 -0.006137132 0.02423501 0.004999995 -0.006137132 0.02423501 0 -0.002064466 0.02491456 0.004999995 -0.002064466 0.02491456 0 0.002064466 0.02491456 0.004999995 0.002064466 0.02491456 0 0.006137132 0.02423501 0.004999995 0.006137132 0.02423501 0 0.01004236 0.02289432 0.004999995 0.01004236 0.02289432 0 0.01367366 0.02092915 0.004999995 0.01367366 0.02092915 0 0.01693201 0.01839309 0.004999995 0.01693201 0.01839309 0 0.01972848 0.01535528 0.004999995 0.01972848 0.01535528 0 0.02198684 0.01189863 0.004999995 0.02198684 0.01189863 0 0.0236454 0.008117437 0.004999995 0.0236454 0.008117437 0 0.02465903 0.004114806 0.004999995 0.02465903 0.004114806 0 0.02499997 0 0.004999995 0.02499997 0 0 0.02465903 -0.004114806 0.004999995 0.02465903 -0.004114806 0 0.0236454 -0.008117437 0.004999995 0.0236454 -0.008117437 0 0.02198684 -0.01189863 0.004999995 0.02198684 -0.01189863 0 0.01972848 -0.01535528 0.004999995 0.01972848 -0.01535528 0 0.01693201 -0.01839309 0.004999995 0.01693201 -0.01839309 0 0.01367366 -0.02092915 0.004999995 0.01367366 -0.02092915 0 0.01004236 -0.02289432 0.004999995 0.01004236 -0.02289432 0 0.006137132 -0.02423501 0.004999995 0.006137132 -0.02423501 0 0.002064466 -0.02491456 0.004999995 0.002064466 -0.02491456 0 -0.002064466 -0.02491456 0.004999995 -0.002064466 -0.02491456 0 -0.006137132 -0.02423501 0.004999995 -0.006137132 -0.02423501 0 -0.01004236 -0.02289432 0.004999995 -0.01004236 -0.02289432 0 -0.01367366 -0.02092915 0.004999995 -0.01367366 -0.02092915 0 -0.01693201 -0.01839309 0.004999995 -0.01693201 -0.01839309 0 -0.01972848 -0.01535528 0.004999995 -0.01972848 -0.01535528 0 -0.02198684 -0.01189863 0.004999995 -0.02198684 -0.01189863 0 -0.0236454 -0.008117437 0.004999995 -0.0236454 -0.008117437 0 -0.02465903 -0.004114806 0.004999995 -0.02465903 -0.004114806 0 -0.02499997 0 0.004999995 -0.023 0 0.004999995 -0.02499997 0 0 0 0 0</float_array>
          <technique_common>
            <accessor source="#link_6-mesh-positions-array" count="195" stride="3">
              <param name="X" type="float" />
              <param name="Y" type="float" />
              <param name="Z" type="float" />
            </accessor>
          </technique_common>
        </source>
        <source id="link_6-mesh-normals">
          <float_array id="link_6-mesh-normals-array" count="1104">0 0 -1 0 0 -1 1 0 0 1 0 0 0 0 1 0 0 1 -1 0 0 -1 0 0 0 -1 0 0 -1 0 0 1 0 0 1 0 -0.2588195 -0.9659258 0 -0.2588195 -0.9659258 0 -0.7071077 -0.7071059 0 -0.7071077 -0.7071059 0 -0.9659256 -0.2588201 0 -0.9659256 -0.2588201 0 -1 0 0 -1 0 0 -0.9659256 0.2588201 0 -0.9659256 0.2588201 0 -0.7071077 0.7071059 0 -0.7071077 0.7071059 0 -0.2588195 0.9659258 0 -0.2588195 0.9659258 0 0 1 0 0 1 0 0.2588195 0.9659258 0 0.2588195 0.9659258 0 0.7071077 0.7071059 0 0.7071077 0.7071059 0 0.9659256 0.2588201 0 0.9659256 0.2588201 0 1 0 0 1 0 0 0.9659256 -0.2588201 0 0.9659256 -0.2588201 0 0.7071077 -0.7071059 0 0.7071077 -0.7071059 0 0.2588195 -0.9659258 0 0.2588195 -0.9659258 0 0 -1 0 0 -1 0 0 0 -1 0 0 -1 0 0 -1 0 0 -1 0 0 -1 0 0 -1 0 0 -1 0 0 -1 0 0 -1 0 0 -1 0 0 -1 0 0 -1 0 0 -1 0 0 -1 0 0 1 0 0 1 0 0 1 0 0 1 0 0 1 0 0 1 0 0 1 0 0 1 0 0 1 0 0 1 0 0 1 0 0 1 0 0 1 0 0 1 -0.9961948 0.08715558 0 -0.9659258 0.258819 0 -0.9659258 0.258819 0 -0.9063078 0.4226182 0 -0.9063078 0.4226182 0 -0.8191521 0.5735764 0 -0.8191521 0.5735764 0 -0.7071068 0.7071068 0 -0.7071068 0.7071068 0 -0.5735764 0.8191521 0 -0.5735764 0.8191521 0 -0.4226182 0.9063078 0 -0.4226182 0.9063078 0 -0.258819 0.9659258 0 -0.258819 0.9659258 0 -0.08715558 0.9961948 0 -0.08715558 0.9961948 0 0.08715558 0.9961948 0 0.08715558 0.9961948 0 0.258819 0.9659258 0 0.258819 0.9659258 0 0.4226182 0.9063078 0 0.4226182 0.9063078 0 0.5735764 0.8191521 0 0.5735764 0.8191521 0 0.7071068 0.7071068 0 0.7071068 0.7071068 0 0.8191521 0.5735764 0 0.8191521 0.5735764 0 0.9063078 0.4226182 0 0.9063078 0.4226182 0 0.9659258 0.258819 0 0.9659258 0.258819 0 0.9961948 0.08715558 0 0.9961948 0.08715558 0 0.9961948 -0.08715558 0 0.9961948 -0.08715558 0 0.9659258 -0.258819 0 0.9659258 -0.258819 0 0.9063078 -0.4226182 0 0.9063078 -0.4226182 0 0.8191521 -0.5735764 0 0.8191521 -0.5735764 0 0.7071068 -0.7071068 0 0.7071068 -0.7071068 0 0.5735764 -0.8191521 0 0.5735764 -0.8191521 0 0.4226182 -0.9063078 0 0.4226182 -0.9063078 0 0.258819 -0.9659258 0 0.258819 -0.9659258 0 0.08715558 -0.9961948 0 0.08715558 -0.9961948 0 -0.08715558 -0.9961948 0 -0.08715558 -0.9961948 0 -0.258819 -0.9659258 0 -0.258819 -0.9659258 0 -0.4226182 -0.9063078 0 -0.4226182 -0.9063078 0 -0.5735764 -0.8191521 0 -0.5735764 -0.8191521 0 -0.7071068 -0.7071068 0 -0.7071068 -0.7071068 0 -0.8191521 -0.5735764 0 -0.8191521 -0.5735764 0 -0.9063078 -0.4226182 0 -0.9063078 -0.4226182 0 -0.9659258 -0.258819 0 -0.9659258 -0.258819 0 -0.9961948 -0.08715558 0 -0.9961948 -0.08715558 0 -0.9961948 0.08715558 0 0 0 1 0 0 1 0 0 1 0 0 1 0 0 1 0 0 1 0 0 1 0 0 1 0 0 1 0 0 1 0 0 1 0 0 1 0 0 1 0 0 1 0 0 1 0 0 1 0 0 1 0 0 1 0 0 1 0 0 1 0 0 1 0 0 1 0 0 1 0 0 1 0 0 1 0 0 1 0 0 1 0 0 1 0 0 1 0 0 1 0 0 1 0 0 1 0 0 1 0 0 1 0 0 1 0 0 1 -0.9965845 0.08257955 0 -0.9694003 0.2454854 0 -0.9694003 0.2454854 0 -0.9157734 0.4016953 0 -0.9157734 0.4016953 0 -0.8371665 0.5469481 0 -0.8371665 0.5469481 0 -0.7357237 0.6772818 0 -0.7357237 0.6772818 0 -0.6142128 0.7891405 0 -0.6142128 0.7891405 0 -0.4759476 0.8794736 0 -0.4759476 0.8794736 0 -0.3246992 0.9458173 0 -0.3246992 0.9458173 0 -0.1645948 0.9863613 0 -0.1645948 0.9863613 0 0 1 0 0 1 0 0.1645948 0.9863613 0 0.1645948 0.9863613 0 0.3246992 0.9458173 0 0.3246992 0.9458173 0 0.4759476 0.8794736 0 0.4759476 0.8794736 0 0.6142128 0.7891405 0 0.6142128 0.7891405 0 0.7357237 0.6772818 0 0.7357237 0.6772818 0 0.8371665 0.5469481 0 0.8371665 0.5469481 0 0.9157734 0.4016953 0 0.9157734 0.4016953 0 0.9694003 0.2454854 0 0.9694003 0.2454854 0 0.9965845 0.08257955 0 0.9965845 0.08257955 0 0.9965845 -0.08257955 0 0.9965845 -0.08257955 0 0.9694003 -0.2454854 0 0.9694003 -0.2454854 0 0.9157734 -0.4016953 0 0.9157734 -0.4016953 0 0.8371665 -0.5469481 0 0.8371665 -0.5469481 0 0.7357237 -0.6772818 0 0.7357237 -0.6772818 0 0.6142128 -0.7891405 0 0.6142128 -0.7891405 0 0.4759476 -0.8794736 0 0.4759476 -0.8794736 0 0.3246992 -0.9458173 0 0.3246992 -0.9458173 0 0.1645948 -0.9863613 0 0.1645948 -0.9863613 0 0 -1 0 0 -1 0 -0.1645948 -0.9863613 0 -0.1645948 -0.9863613 0 -0.3246992 -0.9458173 0 -0.3246992 -0.9458173 0 -0.4759476 -0.8794736 0 -0.4759476 -0.8794736 0 -0.6142128 -0.7891405 0 -0.6142128 -0.7891405 0 -0.7357237 -0.6772818 0 -0.7357237 -0.6772818 0 -0.8371665 -0.5469481 0 -0.8371665 -0.5469481 0 -0.9157734 -0.4016953 0 -0.9157734 -0.4016953 0 -0.9694003 -0.2454854 0 -0.9694003 -0.2454854 0 -0.9965845 -0.08257955 0 -0.9965845 -0.08257955 0 -0.9965845 0.08257955 0 0 0 1 0 0 1 0 0 1 0 0 1 0 0 1 0 0 1 0 0 1 0 0 1 0 0 1 0 0 1 0 0 1 0 0 1 0 0 1 0 0 1 0 0 1 0 0 1 0 0 1 0 0 1 0 0 1 0 0 1 0 0 1 0 0 1 0 0 1 0 0 1 0 0 1 0 0 1 0 0 1 0 0 1 0 0 1 0 0 1 0 0 1 0 0 1 0 0 1 0 0 1 0 0 1 0 0 1 0 0 1 0 0 1 0 0 1 0 0 1 0 0 1 0 0 1 0 0 1 0 0 1 0 0 1 0 0 1 0 0 1 0 0 1 0 0 1 0 0 1 0 0 1 0 0 1 0 0 1 0 0 1 0 0 1 0 0 1 0 0 1 0 0 1 0 0 1 0 0 1 0 0 1 0 0 1 0 0 1 0 0 1 0 0 1 0 0 1 0 0 1 0 0 1 0 0 1 0 0 1 0 0 1 0 0 1 0 0 1 0 0 1 0 0 -1 0 0 -1 0 0 -1 0 0 -1 0 0 -1 0 0 -1 0 0 -1 0 0 -1 0 0 -1 0 0 -1 0 0 -1 0 0 -1 0 0 -1 0 0 -1 0 0 -1 0 0 -1 0 0 -1 0 0 -1 0 0 -1 0 0 -1 0 0 -1 0 0 -1 0 0 -1 0 0 -1 0 0 -1 0 0 -1 0 0 -1 0 0 -1 0 0 -1 0 0 -1 0 0 -1 0 0 -1 0 0 -1 0 0 -1 0 0 -1 0 0 -1 0 0 -1 0 0 -1</float_array>
          <technique_common>
            <accessor source="#link_6-mesh-normals-array" count="368" stride="3">
              <param name="X" type="float" />
              <param name="Y" type="float" />
              <param name="Z" type="float" />
            </accessor>
          </technique_common>
        </source>
        <vertices id="link_6-mesh-vertices">
          <input semantic="POSITION" source="#link_6-mesh-positions" />
        </vertices>
        <triangles count="368">
          <input semantic="VERTEX" source="#link_6-mesh-vertices" offset="0" />
          <input semantic="NORMAL" source="#link_6-mesh-normals" offset="1" />
          <p>0 0 1 0 2 0 2 1 1 1 3 1 4 2 5 2 0 2 0 3 5 3 1 3 6 4 7 4 4 4 4 5 7 5 5 5 2 6 3 6 6 6 6 7 3 7 7 7 5 8 7 8 1 8 1 9 7 9 3 9 6 10 4 10 2 10 2 11 4 11 0 11 8 12 9 12 10 12 8 13 10 13 11 13 11 14 10 14 12 14 11 15 12 15 13 15 13 16 12 16 14 16 13 17 14 17 15 17 16 18 15 18 17 18 17 19 15 19 14 19 16 20 17 20 18 20 16 21 18 21 19 21 19 22 18 22 20 22 19 23 20 23 21 23 21 24 20 24 22 24 21 25 22 25 23 25 24 26 23 26 25 26 25 27 23 27 22 27 24 28 25 28 26 28 24 29 26 29 27 29 27 30 26 30 28 30 27 31 28 31 29 31 29 32 28 32 30 32 29 33 30 33 31 33 32 34 31 34 33 34 33 35 31 35 30 35 32 36 33 36 34 36 32 37 34 37 35 37 35 38 34 38 36 38 35 39 36 39 37 39 37 40 36 40 38 40 37 41 38 41 39 41 8 42 39 42 9 42 9 43 39 43 38 43 24 44 39 44 23 44 23 45 39 45 8 45 35 46 37 46 32 46 32 47 37 47 39 47 32 48 39 48 31 48 31 49 39 49 24 49 31 50 24 50 29 50 29 51 24 51 27 51 19 52 21 52 16 52 16 53 21 53 23 53 16 54 23 54 15 54 15 55 23 55 8 55 15 56 8 56 13 56 13 57 8 57 11 57 38 58 25 58 9 58 9 59 25 59 22 59 28 60 26 60 30 60 30 61 26 61 25 61 30 62 25 62 33 62 33 63 25 63 38 63 33 64 38 64 34 64 34 65 38 65 36 65 12 66 10 66 14 66 14 67 10 67 9 67 14 68 9 68 17 68 17 69 9 69 22 69 17 70 22 70 18 70 18 71 22 71 20 71 40 72 41 72 42 72 42 73 41 73 43 73 42 74 43 74 44 74 44 75 43 75 45 75 44 76 45 76 46 76 46 77 45 77 47 77 46 78 47 78 48 78 48 79 47 79 49 79 48 80 49 80 50 80 50 81 49 81 51 81 50 82 51 82 52 82 52 83 51 83 53 83 52 84 53 84 54 84 54 85 53 85 55 85 54 86 55 86 56 86 56 87 55 87 57 87 56 88 57 88 58 88 58 89 57 89 59 89 58 90 59 90 60 90 60 91 59 91 61 91 60 92 61 92 62 92 62 93 61 93 63 93 62 94 63 94 64 94 64 95 63 95 65 95 64 96 65 96 66 96 66 97 65 97 67 97 66 98 67 98 68 98 68 99 67 99 69 99 68 100 69 100 70 100 70 101 69 101 71 101 70 102 71 102 72 102 72 103 71 103 73 103 72 104 73 104 74 104 74 105 73 105 75 105 74 106 75 106 76 106 76 107 75 107 77 107 76 108 77 108 78 108 78 109 77 109 79 109 78 110 79 110 80 110 80 111 79 111 81 111 80 112 81 112 82 112 82 113 81 113 83 113 82 114 83 114 84 114 84 115 83 115 85 115 84 116 85 116 86 116 86 117 85 117 87 117 86 118 87 118 88 118 88 119 87 119 89 119 88 120 89 120 90 120 90 121 89 121 91 121 90 122 91 122 92 122 92 123 91 123 93 123 92 124 93 124 94 124 94 125 93 125 95 125 94 126 95 126 96 126 96 127 95 127 97 127 96 128 97 128 98 128 98 129 97 129 99 129 98 130 99 130 100 130 100 131 99 131 101 131 100 132 101 132 102 132 102 133 101 133 103 133 102 134 103 134 104 134 104 135 103 135 105 135 104 136 105 136 106 136 106 137 105 137 107 137 106 138 107 138 108 138 108 139 107 139 109 139 108 140 109 140 110 140 110 141 109 141 111 141 110 142 111 142 40 142 40 143 111 143 41 143 43 144 41 144 112 144 112 145 41 145 111 145 112 146 111 146 109 146 49 147 47 147 112 147 112 148 47 148 45 148 112 149 45 149 43 149 55 150 53 150 112 150 112 151 53 151 51 151 112 152 51 152 49 152 61 153 59 153 112 153 112 154 59 154 113 154 112 155 113 155 55 155 67 156 65 156 112 156 112 157 65 157 63 157 112 158 63 158 61 158 73 159 71 159 112 159 112 160 71 160 69 160 112 161 69 161 67 161 79 162 77 162 112 162 112 163 77 163 114 163 112 164 114 164 73 164 85 165 83 165 112 165 112 166 83 166 81 166 112 167 81 167 79 167 91 168 89 168 112 168 112 169 89 169 87 169 112 170 87 170 85 170 97 171 95 171 112 171 112 172 95 172 115 172 112 173 115 173 91 173 103 174 101 174 112 174 112 175 101 175 99 175 112 176 99 176 97 176 109 177 107 177 112 177 112 178 107 178 105 178 112 179 105 179 103 179 116 180 117 180 118 180 118 181 117 181 119 181 118 182 119 182 120 182 120 183 119 183 121 183 120 184 121 184 122 184 122 185 121 185 123 185 122 186 123 186 124 186 124 187 123 187 125 187 124 188 125 188 126 188 126 189 125 189 127 189 126 190 127 190 128 190 128 191 127 191 129 191 128 192 129 192 130 192 130 193 129 193 131 193 130 194 131 194 132 194 132 195 131 195 133 195 132 196 133 196 134 196 134 197 133 197 135 197 134 198 135 198 136 198 136 199 135 199 137 199 136 200 137 200 138 200 138 201 137 201 139 201 138 202 139 202 140 202 140 203 139 203 141 203 140 204 141 204 142 204 142 205 141 205 143 205 142 206 143 206 144 206 144 207 143 207 145 207 144 208 145 208 146 208 146 209 145 209 147 209 146 210 147 210 148 210 148 211 147 211 149 211 148 212 149 212 150 212 150 213 149 213 151 213 150 214 151 214 152 214 152 215 151 215 153 215 152 216 153 216 154 216 154 217 153 217 155 217 154 218 155 218 156 218 156 219 155 219 157 219 156 220 157 220 158 220 158 221 157 221 159 221 158 222 159 222 160 222 160 223 159 223 161 223 160 224 161 224 162 224 162 225 161 225 163 225 162 226 163 226 164 226 164 227 163 227 165 227 164 228 165 228 166 228 166 229 165 229 167 229 166 230 167 230 168 230 168 231 167 231 169 231 168 232 169 232 170 232 170 233 169 233 171 233 170 234 171 234 172 234 172 235 171 235 173 235 172 236 173 236 174 236 174 237 173 237 175 237 174 238 175 238 176 238 176 239 175 239 177 239 176 240 177 240 178 240 178 241 177 241 179 241 178 242 179 242 180 242 180 243 179 243 181 243 180 244 181 244 182 244 182 245 181 245 183 245 182 246 183 246 184 246 184 247 183 247 185 247 184 248 185 248 186 248 186 249 185 249 187 249 186 250 187 250 188 250 188 251 187 251 189 251 188 252 189 252 190 252 190 253 189 253 191 253 190 254 191 254 116 254 116 255 191 255 117 255 58 256 133 256 56 256 56 257 133 257 131 257 56 258 131 258 54 258 54 259 131 259 129 259 54 260 129 260 52 260 52 261 129 261 127 261 52 262 127 262 50 262 50 263 127 263 125 263 50 264 125 264 48 264 48 265 125 265 123 265 48 266 123 266 46 266 46 267 123 267 121 267 46 268 121 268 44 268 44 269 121 269 119 269 44 270 119 270 42 270 42 271 119 271 117 271 42 272 117 272 192 272 192 273 117 273 191 273 192 274 191 274 110 274 110 275 191 275 189 275 110 276 189 276 108 276 108 277 189 277 187 277 108 278 187 278 106 278 106 279 187 279 185 279 106 280 185 280 104 280 104 281 185 281 183 281 104 282 183 282 102 282 102 283 183 283 181 283 102 284 181 284 100 284 100 285 181 285 179 285 100 286 179 286 98 286 98 287 179 287 177 287 98 288 177 288 96 288 96 289 177 289 175 289 96 290 175 290 94 290 175 291 173 291 94 291 94 292 173 292 171 292 94 293 171 293 92 293 92 294 171 294 169 294 92 295 169 295 90 295 90 296 169 296 167 296 90 297 167 297 88 297 88 298 167 298 165 298 88 299 165 299 86 299 86 300 165 300 163 300 86 301 163 301 84 301 84 302 163 302 161 302 84 303 161 303 82 303 82 304 161 304 159 304 82 305 159 305 80 305 80 306 159 306 157 306 80 307 157 307 78 307 78 308 157 308 155 308 78 309 155 309 76 309 76 310 155 310 153 310 76 311 153 311 74 311 74 312 153 312 151 312 74 313 151 313 72 313 72 314 151 314 149 314 72 315 149 315 70 315 70 316 149 316 147 316 70 317 147 317 68 317 68 318 147 318 145 318 68 319 145 319 66 319 66 320 145 320 143 320 66 321 143 321 64 321 64 322 143 322 141 322 64 323 141 323 62 323 62 324 141 324 139 324 62 325 139 325 60 325 60 326 139 326 137 326 60 327 137 327 58 327 58 328 137 328 135 328 58 329 135 329 133 329 193 330 118 330 194 330 193 331 194 331 190 331 184 332 186 332 194 332 194 333 186 333 188 333 194 334 188 334 190 334 178 335 180 335 194 335 194 336 180 336 182 336 194 337 182 337 184 337 172 338 174 338 194 338 194 339 174 339 176 339 194 340 176 340 178 340 166 341 168 341 194 341 194 342 168 342 170 342 194 343 170 343 172 343 160 344 162 344 194 344 194 345 162 345 164 345 194 346 164 346 166 346 154 347 156 347 194 347 194 348 156 348 158 348 194 349 158 349 160 349 148 350 150 350 194 350 194 351 150 351 152 351 194 352 152 352 154 352 142 353 144 353 194 353 194 354 144 354 146 354 194 355 146 355 148 355 136 356 138 356 194 356 194 357 138 357 140 357 194 358 140 358 142 358 130 359 132 359 194 359 194 360 132 360 134 360 194 361 134 361 136 361 124 362 126 362 194 362 194 363 126 363 128 363 194 364 128 364 130 364 118 365 120 365 194 365 194 366 120 366 122 366 194 367 122 367 124 367</p>
        </triangles>
      </mesh>
    </geometry>
    </library_geometries>
  <library_visual_scenes>
    <visual_scene id="Scene" name="Scene">
      <node id="link_6" name="link_6" type="NODE">
        <matrix sid="transform">1 0 0 0 0 1 0 0 0 0 1 0 0 0 0 1</matrix>
        <instance_geometry url="#link_6-mesh" name="link_6" />
      </node>
      </visual_scene>
  </library_visual_scenes>
  <scene>
    <instance_visual_scene url="#Scene" />
  </scene>
</COLLADA>