<?xml version='1.0' encoding='utf-8'?>
<COLLADA xmlns="http://www.collada.org/2005/11/COLLADASchema" version="1.4.1">
  <asset>
    <contributor>
      <author>Blender User</author>
      <authoring_tool>Blender 4.5.7 LTS commit date:2026-02-16, commit time:13:34, hash:a9874eeece8d</authoring_tool>
    </contributor>
    <created>2026-06-15T02:29:50</created>
    <modified>2026-06-16T00:38:35</modified>
    <unit name="meter" meter="1" />
    <up_axis>Z_UP</up_axis>
  </asset>
  <library_cameras>
    <camera id="Camera-camera" name="Camera">
      <optics>
        <technique_common>
          <perspective>
            <xfov sid="xfov">39.59775</xfov>
            <aspect_ratio>1.777778</aspect_ratio>
            <znear sid="znear">0.1</znear>
            <zfar sid="zfar">100</zfar>
          </perspective>
        </technique_common>
      </optics>
      <extra>
        <technique profile="blender">
          <shiftx sid="shiftx" type="float">0</shiftx>
          <shifty sid="shifty" type="float">0</shifty>
          <dof_distance sid="dof_distance" type="float">10</dof_distance>
        </technique>
      </extra>
    </camera>
  </library_cameras>
  <library_lights>
    <light id="Light-light" name="Light">
      <technique_common>
        <point>
          <color sid="color">1000 1000 1000</color>
          <constant_attenuation>1</constant_attenuation>
          <linear_attenuation>0</linear_attenuation>
          <quadratic_attenuation>0</quadratic_attenuation>
        </point>
      </technique_common>
      <extra>
        <technique profile="blender">
          <type sid="type" type="int">0</type>
          <flag sid="flag" type="int">0</flag>
          <mode sid="mode" type="int">2097153</mode>
          <red sid="red" type="float">1</red>
          <green sid="green" type="float">1</green>
          <blue sid="blue" type="float">1</blue>
          <energy sid="blender_energy" type="float">1000</energy>
          <spotsize sid="spotsize" type="float">75</spotsize>
          <spotblend sid="spotblend" type="float">0.15</spotblend>
          <clipsta sid="clipsta" type="float">0.04999995</clipsta>
          <clipend sid="clipend" type="float">40</clipend>
          <radius sid="radius" type="float">0.1</radius>
          <area_shape sid="area_shape" type="int">1</area_shape>
          <area_size sid="area_size" type="float">0.1</area_size>
          <area_sizey sid="area_sizey" type="float">0.1</area_sizey>
          <area_sizez sid="area_sizez" type="float">1</area_sizez>
        </technique>
      </extra>
    </light>
  </library_lights>
  <library_geometries>
    <geometry id="link_5-mesh" name="link_5">
      <mesh>
        <source id="link_5-mesh-positions">
          <float_array id="link_5-mesh-positions-array" count="621">0.06599998 0.02363961 -0.07213282 0.06599998 0.0195747 -0.06412893 0.06599998 0.02814579 -0.06607997 0.06599998 0.03113466 -0.05915105 0.06599998 -0.03249996 -0.04982995 0.06599998 -0.03249996 -0.02999997 0.06599998 -0.0195747 -0.03553098 0.06599998 0.0195747 -0.03553098 0.06599998 0.03229153 -0.02999997 0.06599998 0.03211307 -0.05482995 0.06599998 -0.02363961 -0.07213282 0.06599998 -0.0195747 -0.06412893 0.06599998 -0.01785904 -0.07698333 0.06599998 -0.02814579 -0.06607997 0.06599998 -0.03113466 -0.05915105 0.06599998 -0.03244501 -0.05171966 0.06599998 0.01785904 -0.07698333 0.06599998 0.01111561 -0.08037 0.06599998 0.003772974 -0.08211022 0.06599998 -0.003772974 -0.08211022 0.06599998 -0.01111561 -0.08037 0.12 0.03211307 -0.05482995 0.12 0.03218162 -0.04529213 0.12 0.03229153 -0.02999997 -0.03136622 0.01552921 0 -0.03407943 0.007974326 0 0.009270191 -0.03374999 0 0.12 -0.03249996 0 0.12 0.03249996 0 0.0185405 -0.03249996 0 0.0185405 0.03249996 0 0.009270191 0.03374999 0 0.001336872 0.03497445 0 -0.006666779 0.03435915 0 -0.01431977 0.03193652 0 -0.03499996 0 0 -0.03407943 -0.007974326 0 -0.03136622 -0.01552921 0 -0.01431977 -0.03193652 0 0.001336872 -0.03497445 0 -0.006666779 -0.03435915 0 -0.02121955 0.02783393 0 -0.0270031 0.02226722 0 -0.0270031 -0.02226722 0 -0.02121955 -0.02783393 0 0.12 -0.03249996 -0.04982995 0.12 -0.0320062 -0.04418641 0.1305 -0.03244501 -0.05171966 0.1305 0.0320062 -0.04418641 0.12 0.02984201 -0.03695738 0.1305 0.02984201 -0.03695738 0.12 0.02606898 -0.03042232 0.1305 0.02606898 -0.03042232 0.12 0.02089059 -0.02493351 0.1305 0.02089059 -0.02493351 0.12 0.01458597 -0.02078694 0.1305 0.01458597 -0.02078694 0.12 0.007494986 -0.018206 0.1305 0.007494986 -0.018206 0.12 0 -0.01732999 0.1305 0 -0.01732999 0.12 -0.007494986 -0.018206 0.1305 -0.007494986 -0.018206 0.12 -0.01458597 -0.02078694 0.1305 -0.01458597 -0.02078694 0.12 -0.02089059 -0.02493351 0.1305 -0.02089059 -0.02493351 0.12 -0.02606898 -0.03042232 0.1305 -0.02606898 -0.03042232 0.12 -0.02984201 -0.03695738 0.1305 -0.02984201 -0.03695738 0.1305 -0.0320062 -0.04418641 0.1305 0.03244501 -0.05171966 0.12 0.0320062 -0.04418641 0.1305 0.03113466 -0.05915105 0.12 0.03244501 -0.05171966 0.1305 -0.03113466 -0.05915105 0.1305 -0.02814579 -0.06607997 0.1305 -0.02363961 -0.07213282 0.1305 -0.01785904 -0.07698333 0.1305 -0.01111561 -0.08037 0.1305 -0.003772974 -0.08211022 0.1305 0.003772974 -0.08211022 0.1305 0.01111561 -0.08037 0.1305 0.01785904 -0.07698333 0.1305 0.02363961 -0.07213282 0.1305 0.02814579 -0.06607997 0.0185405 -0.03249996 -0.02999997 0.12 0.03249996 -0.02999997 0.12 0 -0.01732999 0.1305 -0.00519514 -0.06496304 0.1305 0 -0.06582999 0.1305 0.00519514 -0.06496304 0.1305 0.009827375 -0.06245625 0.1305 0.01551038 -0.05375772 0.1305 0.01594531 -0.0485087 0.1305 0.01465237 -0.04340285 0.1305 0.01177155 -0.03899347 0.1305 -0.007615149 -0.03575837 0.1305 -0.01177155 -0.03899347 0.1305 -0.01465237 -0.04340285 0.1305 -0.01594531 -0.0485087 0.1305 0.01339465 -0.05858117 0.1305 -0.01339465 -0.05858117 0.1305 -0.009827375 -0.06245625 0.1305 -0.01551038 -0.05375772 0.1305 0.007615149 -0.03575837 0.1305 0.002633512 -0.03404819 0.1305 0 -0.03382998 0.1305 0 -0.01732999 0.1305 -0.002633512 -0.03404819 0.131 -0.002633512 -0.03404819 0.131 0 -0.03382998 0.1305 0 -0.03382998 0.131 0.002633512 -0.03404819 0.131 0.007615149 -0.03575837 0.131 0.01177155 -0.03899347 0.131 0.01465237 -0.04340285 0.131 0.01594531 -0.0485087 0.131 0.01551038 -0.05375772 0.131 0.01339465 -0.05858117 0.131 0.009827375 -0.06245625 0.131 0.00519514 -0.06496304 0.131 0 -0.06582999 0.131 -0.00519514 -0.06496304 0.131 -0.009827375 -0.06245625 0.131 -0.01339465 -0.05858117 0.131 -0.01551038 -0.05375772 0.131 -0.01594531 -0.0485087 0.131 -0.01465237 -0.04340285 0.131 -0.01177155 -0.03899347 0.131 -0.007615149 -0.03575837 0.131 0 -0.03382998 0.131 0 -0.04982995 0.04399996 -0.0195747 -0.06412893 0.04399996 0.0195747 -0.06412893 0.04399996 -0.0195747 -0.03553098 0.04399996 0.0195747 -0.03553098 0.02699995 0 -0.02999997 0.02607995 0.006988108 -0.02999997 0.02338266 0.01349997 -0.02999997 -0.02121955 0.02783393 -0.02999997 -0.01431977 0.03193652 -0.02999997 -0.01349997 0.02338266 -0.02999997 0.02607995 -0.006988108 -0.02999997 0.02338266 -0.01349997 -0.02999997 0.01909184 0.01909184 -0.02999997 0.01349997 0.02338266 -0.02999997 0.006988108 0.02607995 -0.02999997 -0.006988108 0.02607995 -0.02999997 -0.006666779 0.03435915 -0.02999997 0 0.02699995 -0.02999997 0.001336872 0.03497445 -0.02999997 0.009270191 0.03374999 -0.02999997 0.0185405 0.03249996 -0.02999997 -0.0270031 0.02226722 -0.02999997 -0.01909184 0.01909184 -0.02999997 -0.03136622 0.01552921 -0.02999997 -0.02338266 0.01349997 -0.02999997 -0.03407943 0.007974326 -0.02999997 -0.02607995 0.006988108 -0.02999997 -0.03499996 0 -0.02999997 -0.02699995 0 -0.02999997 -0.03407943 -0.007974326 -0.02999997 -0.02607995 -0.006988108 -0.02999997 -0.03136622 -0.01552921 -0.02999997 -0.02338266 -0.01349997 -0.02999997 -0.0270031 -0.02226722 -0.02999997 -0.01909184 -0.01909184 -0.02999997 -0.02121955 -0.02783393 -0.02999997 -0.01349997 -0.02338266 -0.02999997 -0.01431977 -0.03193652 -0.02999997 -0.006666779 -0.03435915 -0.02999997 -0.006988108 -0.02607995 -0.02999997 0.001336872 -0.03497445 -0.02999997 0 -0.02699995 -0.02999997 0.009270191 -0.03374999 -0.02999997 0.006988108 -0.02607995 -0.02999997 0.01349997 -0.02338266 -0.02999997 0.01909184 -0.01909184 -0.02999997 -0.02699995 0 -0.02999997 -0.02607995 -0.006988108 -0.03499996 -0.02338266 -0.01349997 -0.03499996 -0.01909184 -0.01909184 -0.03499996 -0.01349997 -0.02338266 -0.03499996 -0.006988108 -0.02607995 -0.03499996 0 -0.02699995 -0.03499996 0.006988108 -0.02607995 -0.03499996 0.01349997 -0.02338266 -0.03499996 0.01909184 -0.01909184 -0.03499996 0.02338266 -0.01349997 -0.03499996 0.02607995 -0.006988108 -0.03499996 0.02699995 0 -0.03499996 0.02607995 0.006988108 -0.03499996 0.02338266 0.01349997 -0.03499996 0.01909184 0.01909184 -0.03499996 0.01349997 0.02338266 -0.03499996 0.006988108 0.02607995 -0.03499996 0 0.02699995 -0.03499996 -0.006988108 0.02607995 -0.03499996 -0.01349997 0.02338266 -0.03499996 -0.01909184 0.01909184 -0.03499996 -0.02338266 0.01349997 -0.03499996 -0.02607995 0.006988108 -0.03499996 -0.02699995 0 -0.03499996 0 0 -0.03499996 0.02699995 0 -0.03499996</float_array>
          <technique_common>
            <accessor source="#link_5-mesh-positions-array" count="207" stride="3">
              <param name="X" type="float" />
              <param name="Y" type="float" />
              <param name="Z" type="float" />
            </accessor>
          </technique_common>
        </source>
        <source id="link_5-mesh-normals">
          <float_array id="link_5-mesh-normals-array" count="1194">-1 0 0 -1 0 0 -1 0 0 -1 0 0 -1 0 0 -1 0 0 -1 0 0 -1 0 0 -1 0 0 -1 0 0 -1 0 0 -1 0 0 -1 0 0 -1 0 0 -1 0 0 -1 0 0 -1 0 0 -1 0 0 -1 0 0 -1 0 0 -1 0 0 0 0.9999741 -0.007187604 0 0.9999741 -0.007187485 0 0.9999741 -0.007187426 0 0 1 0 0 1 0 0 1 0 0 1 0 0 1 0 0 1 0 0 1 0 0 1 0 0 1 0 0 1 0 0 1 0 0 1 0 0 1 0 0 1 0 0 1 0 0 1 0 0 1 0 0 1 0 0 1 0 -0.9995769 -0.02908492 0.02089768 -0.9959772 0.08713638 0 0.9579896 0.2868033 0 0.8660253 0.5000001 0 0.8660253 0.5000001 0 0.7273737 0.6862416 0 0.7273737 0.6862416 0 0.5495091 0.8354878 0 0.5495091 0.8354878 0 0.3420202 0.9396926 0 0.3420202 0.9396926 0 0.1160928 0.9932383 0 0.1160928 0.9932383 0 -0.1160928 0.9932383 0 -0.1160928 0.9932383 0 -0.3420202 0.9396926 0 -0.3420202 0.9396926 0 -0.5495091 0.8354878 0 -0.5495091 0.8354878 0 -0.7273737 0.6862416 0 -0.7273737 0.6862416 0 -0.8660253 0.5000001 0 -0.8660253 0.5000001 0 -0.9579896 0.2868033 0 -0.9579896 0.2868033 0 -0.9983081 0.0581445 0.01055169 0.9982526 0.05814129 0 0.9876523 0.1566619 0 0.9579896 0.2868033 0.02030128 0.9846048 -0.1736121 0 0.9943537 -0.1061175 0 0.9991616 0.04094135 0 -0.9995769 -0.02908492 0 -0.9848078 -0.1736479 0 -0.9848078 -0.1736479 0 -0.918216 -0.39608 0 -0.918216 -0.39608 0 -0.8021235 -0.5971582 0 -0.8021235 -0.5971582 0 -0.6427875 -0.7660446 0 -0.6427875 -0.7660446 0 -0.4487989 -0.8936328 0 -0.4487989 -0.8936328 0 -0.2306162 -0.9730448 0 -0.2306162 -0.9730448 0 0 -1 0 0 -1 0 0.2306162 -0.9730448 0 0.2306162 -0.9730448 0 0.4487989 -0.8936328 0 0.4487989 -0.8936328 0 0.6427875 -0.7660446 0 0.6427875 -0.7660446 0 0.8021235 -0.5971582 0 0.8021235 -0.5971582 0 0.918216 -0.39608 0 0.918216 -0.39608 0 0.9753104 -0.2208384 0 0.9753105 -0.2208384 0 -1 0 0 -1 0 0 -1 0 0 -1 0 1 0 0 1 0 0 1 0 0 1 0 0 1 0 0 1 0 0 1 0 0 1 0 0 1 0 0 1 0 0 1 0 0 1 0 0 1 0 0 1 0 0 1 0 0 1 0 0 1 0 0 -1 0 0 1 0 0 1 0 0 1 0 0 1 0 0 1 0 0 1 0 0 1 0 0 1 0 0 1 0 0 1 0 0 1 0 0 1 0 0 1 0 0 1 0 0 1 0 0 1 0 0 1 0 0 1 0 0 1 0 0 1 0 0 1 0 0 1 0 0 1 0 0 1 0 0 1 0 0 1 0 0 1 0 0 1 0 0 1 0 0 1 0 0 1 0 0 1 0 0 1 0 0 1 0 0 1 0 0 1 0 0 1 0 0 1 0 0 1 0 0 1 0 0 1 0 0 1 0 0 1 0 0 1 0 0 1 0 0 1 0 0 1 0 0 0 -0.08257967 0.9965845 0 0.08257967 0.9965845 0 0.08257967 0.9965845 0 0.3246998 0.9458171 0 0.3246998 0.9458171 0 0.6142123 0.7891408 0 0.6142123 0.7891408 0 0.8371667 0.546948 0 0.8371667 0.546948 0 0.9694002 0.2454856 0 0.9694002 0.2454856 0 0.9965845 -0.08257943 0 0.9965845 -0.08257943 0 0.9157733 -0.4016955 0 0.9157733 -0.4016955 0 0.7357242 -0.6772814 0 0.7357242 -0.6772814 0 0.4759466 -0.8794742 0 0.4759466 -0.8794742 0 0.1645951 -0.9863612 0 0.1645951 -0.9863612 0 -0.1645951 -0.9863612 0 -0.1645951 -0.9863612 0 -0.4759466 -0.8794742 0 -0.4759466 -0.8794742 0 -0.7357242 -0.6772814 0 -0.7357242 -0.6772814 0 -0.9157733 -0.4016955 0 -0.9157733 -0.4016955 0 -0.9965845 -0.08257943 0 -0.9965845 -0.08257943 0 -0.9694002 0.2454856 0 -0.9694002 0.2454856 0 -0.8371667 0.546948 0 -0.8371667 0.546948 0 -0.6142123 0.7891408 0 -0.6142123 0.7891408 0 -0.3246998 0.9458171 0 -0.3246998 0.9458171 0 -0.08257967 0.9965845 1 0 0 1 0 0 1 0 0 1 0 0 1 0 0 1 0 0 1 0 0 1 0 0 1 0 0 1 0 0 1 0 0 1 0 0 1 0 0 1 0 0 1 0 0 1 0 0 1 0 0 1 0 0 1 0 0 1 0 0 0 0 -1 0 0 -1 0 -1 0 0 -1 0 0 0 1 0 0 1 0 1 0 0 1 0 -1 0 0 -1 0 0 0 0 -1 0 0 -1 0 0 -1 0 0 -1 0 0 -1 0 0 -1 0 0 -1 0 0 -1 0 0 -1 0 0 -1 0 0 -1 0 0 -1 0 0 -1 0 0 -1 0 0 -1 0 0 -1 0 0 -1 0 0 -1 0 0 -1 0 0 -1 0 0 -1 0 0 -1 0 0 -1 0 0 -1 0 0 -1 0 0 -1 0 0 -1 0 0 -1 0 0 -1 0 0 -1 0 0 -1 0 0 -1 0 0 -1 0 0 -1 0 0 -1 0 0 -1 0 0 -1 0 0 -1 0 0 -1 0 0 -1 0 0 -1 0 0 -1 0 0 -1 0 0 -1 0 0 -1 0 0 -1 0 0 -1 0.1525366 -0.9882978 0 0.1525366 -0.9882978 0 -0.07664781 -0.9970583 0 -0.07664781 -0.9970583 0 -0.3018007 -0.9533711 0 -0.3018007 -0.9533711 0 -0.5110769 -0.859535 0 -0.5110769 -0.859535 0 -0.6934707 -0.7204849 0 -0.6934707 -0.7204849 0 -0.8393868 -0.5435346 0 -0.8393868 -0.5435346 0 -0.9411474 -0.3379964 0 -0.9411474 -0.3379964 0 -0.993403 -0.1146752 0 -0.993403 -0.1146752 0 -0.993403 0.1146752 0 -0.993403 0.1146752 0 -0.9411474 0.3379964 0 -0.9411474 0.3379964 0 -0.8393868 0.5435346 0 -0.8393868 0.5435346 0 -0.6934707 0.7204849 0 -0.6934707 0.7204849 0 -0.5110769 0.859535 0 -0.5110769 0.859535 0 -0.3018007 0.9533711 0 -0.3018007 0.9533711 0 -0.07664781 0.9970583 0 -0.07664781 0.9970583 0 0.1525366 0.9882978 0 0.1525366 0.9882978 0 0.1336308 0.9910312 0 0.1336308 0.9910312 0 0 1 0 0 1 0 0.1336308 -0.9910312 0 0.1336308 -0.9910312 0 -0.991445 -0.1305255 0 -0.9238792 -0.3826843 0 -0.9238792 -0.3826843 0 -0.7933533 -0.6087616 0 -0.7933533 -0.6087616 0 -0.6087613 -0.7933535 0 -0.6087613 -0.7933535 0 -0.3826836 -0.9238795 0 -0.3826836 -0.9238795 0 -0.1305262 -0.9914448 0 -0.1305262 -0.9914448 0 0.1305264 -0.9914448 0 0.1305264 -0.9914448 0 0.3826832 -0.9238796 0 0.3826832 -0.9238796 0 0.6087614 -0.7933534 0 0.6087614 -0.7933534 0 0.7933533 -0.6087616 0 0.7933533 -0.6087616 0 0.9238796 -0.3826834 0 0.9238796 -0.3826834 0 0.991445 -0.1305255 0 0.991445 -0.1305255 0 0.991445 0.1305255 0 0.991445 0.1305255 0 0.9238796 0.3826834 0 0.9238796 0.3826834 0 0.7933533 0.6087616 0 0.7933533 0.6087616 0 0.6087614 0.7933534 0 0.6087614 0.7933534 0 0.3826832 0.9238796 0 0.3826832 0.9238796 0 0.1305264 0.9914448 0 0.1305264 0.9914448 0 -0.1305262 0.9914448 0 -0.1305262 0.9914448 0 -0.3826836 0.9238795 0 -0.3826836 0.9238795 0 -0.6087613 0.7933535 0 -0.6087613 0.7933535 0 -0.7933533 0.6087616 0 -0.7933533 0.6087616 0 -0.9238792 0.3826843 0 -0.9238792 0.3826843 0 -0.991445 0.1305255 0 -0.991445 0.1305255 0 -0.991445 -0.1305255 0 0 0 -1 0 0 -1 0 0 -1 0 0 -1 0 0 -1 0 0 -1 0 0 -1 0 0 -1 0 0 -1 0 0 -1 0 0 -1 0 0 -1 0 0 -1 0 0 -1 0 0 -1 0 0 -1 0 0 -1 0 0 -1 0 0 -1 0 0 -1 0 0 -1 0 0 -1 0 0 -1 0 0 -1</float_array>
          <technique_common>
            <accessor source="#link_5-mesh-normals-array" count="398" stride="3">
              <param name="X" type="float" />
              <param name="Y" type="float" />
              <param name="Z" type="float" />
            </accessor>
          </technique_common>
        </source>
        <vertices id="link_5-mesh-vertices">
          <input semantic="POSITION" source="#link_5-mesh-positions" />
        </vertices>
        <triangles count="398">
          <input semantic="VERTEX" source="#link_5-mesh-vertices" offset="0" />
          <input semantic="NORMAL" source="#link_5-mesh-normals" offset="1" />
          <p>0 0 1 0 2 0 2 1 1 1 3 1 4 2 5 2 6 2 6 3 5 3 7 3 7 4 5 4 8 4 7 5 8 5 1 5 1 6 8 6 9 6 1 7 9 7 3 7 10 8 11 8 12 8 12 9 11 9 1 9 10 10 13 10 11 10 11 11 13 11 14 11 11 12 14 12 6 12 6 13 14 13 15 13 6 14 15 14 4 14 0 15 16 15 1 15 1 16 16 16 17 16 1 17 17 17 18 17 18 18 19 18 1 18 1 19 19 19 20 19 1 20 20 20 12 20 21 21 9 21 22 21 22 22 9 22 8 22 22 23 8 23 23 23 24 24 25 24 26 24 27 25 28 25 29 25 29 26 28 26 30 26 29 27 30 27 26 27 26 28 30 28 31 28 31 29 32 29 26 29 26 30 32 30 33 30 26 31 33 31 34 31 25 32 35 32 26 32 26 33 35 33 36 33 26 34 36 34 37 34 26 35 38 35 39 35 39 36 38 36 40 36 34 37 41 37 26 37 26 38 41 38 42 38 26 39 42 39 24 39 37 40 43 40 26 40 26 41 43 41 44 41 26 42 44 42 38 42 45 43 4 43 15 43 46 44 45 44 47 44 48 45 49 45 50 45 50 46 49 46 51 46 50 47 51 47 52 47 52 48 51 48 53 48 52 49 53 49 54 49 54 50 53 50 55 50 54 51 55 51 56 51 56 52 55 52 57 52 56 53 57 53 58 53 58 54 57 54 59 54 58 55 59 55 60 55 60 56 59 56 61 56 60 57 61 57 62 57 62 58 61 58 63 58 62 59 63 59 64 59 64 60 63 60 65 60 64 61 65 61 66 61 66 62 65 62 67 62 66 63 67 63 68 63 68 64 67 64 69 64 68 65 69 65 70 65 70 66 69 66 46 66 70 67 46 67 71 67 71 68 46 68 47 68 72 69 22 69 48 69 48 70 22 70 73 70 48 71 73 71 49 71 74 72 21 72 72 72 72 73 21 73 75 73 72 74 75 74 22 74 45 75 15 75 47 75 47 76 15 76 14 76 47 77 14 77 76 77 76 78 14 78 13 78 76 79 13 79 77 79 77 80 13 80 10 80 77 81 10 81 78 81 78 82 10 82 12 82 78 83 12 83 79 83 79 84 12 84 20 84 79 85 20 85 80 85 80 86 20 86 19 86 80 87 19 87 81 87 81 88 19 88 18 88 81 89 18 89 82 89 82 90 18 90 17 90 82 91 17 91 83 91 83 92 17 92 16 92 83 93 16 93 84 93 84 94 16 94 0 94 84 95 0 95 85 95 85 96 0 96 2 96 85 97 2 97 86 97 86 98 2 98 3 98 86 99 3 99 74 99 74 100 3 100 9 100 74 101 9 101 21 101 4 102 45 102 5 102 5 103 45 103 27 103 5 104 27 104 87 104 87 105 27 105 29 105 73 106 22 106 23 106 53 107 51 107 23 107 23 108 51 108 49 108 23 109 49 109 73 109 27 110 45 110 46 110 46 111 69 111 27 111 27 112 69 112 67 112 27 113 67 113 65 113 28 114 57 114 55 114 53 115 23 115 55 115 55 116 23 116 88 116 55 117 88 117 28 117 65 118 63 118 27 118 27 119 63 119 61 119 27 120 61 120 28 120 28 121 61 121 89 121 28 122 89 122 57 122 75 123 21 123 22 123 90 124 81 124 91 124 91 125 81 125 82 125 91 126 82 126 92 126 92 127 82 127 83 127 92 128 83 128 93 128 94 129 72 129 95 129 95 130 72 130 48 130 95 131 48 131 96 131 96 132 48 132 50 132 96 133 50 133 97 133 98 134 66 134 99 134 99 135 66 135 68 135 99 136 68 136 100 136 100 137 68 137 70 137 100 138 70 138 101 138 83 139 84 139 93 139 93 140 84 140 85 140 93 141 85 141 102 141 102 142 85 142 86 142 102 143 86 143 94 143 94 144 86 144 74 144 94 145 74 145 72 145 103 146 78 146 104 146 104 147 78 147 79 147 104 148 79 148 90 148 90 149 79 149 80 149 90 150 80 150 81 150 70 151 71 151 101 151 101 152 71 152 47 152 101 153 47 153 105 153 105 154 47 154 76 154 105 155 76 155 103 155 103 156 76 156 77 156 103 157 77 157 78 157 50 158 52 158 97 158 97 159 52 159 54 159 97 160 54 160 106 160 106 161 54 161 56 161 106 162 56 162 107 162 107 163 56 163 58 163 107 164 58 164 108 164 108 165 58 165 109 165 108 166 109 166 110 166 110 167 109 167 62 167 110 168 62 168 98 168 98 169 62 169 64 169 98 170 64 170 66 170 111 171 112 171 113 171 113 172 112 172 107 172 112 173 114 173 107 173 107 174 114 174 115 174 107 175 115 175 106 175 106 176 115 176 116 176 106 177 116 177 97 177 97 178 116 178 117 178 97 179 117 179 96 179 96 180 117 180 118 180 96 181 118 181 95 181 95 182 118 182 119 182 95 183 119 183 94 183 94 184 119 184 120 184 94 185 120 185 102 185 102 186 120 186 121 186 102 187 121 187 93 187 93 188 121 188 122 188 93 189 122 189 92 189 92 190 122 190 123 190 92 191 123 191 91 191 91 192 123 192 124 192 91 193 124 193 90 193 90 194 124 194 125 194 90 195 125 195 104 195 104 196 125 196 126 196 104 197 126 197 103 197 103 198 126 198 127 198 103 199 127 199 105 199 105 200 127 200 128 200 105 201 128 201 101 201 101 202 128 202 129 202 101 203 129 203 100 203 100 204 129 204 130 204 100 205 130 205 99 205 99 206 130 206 131 206 99 207 131 207 98 207 98 208 131 208 111 208 98 209 111 209 110 209 110 210 111 210 113 210 132 211 111 211 133 211 132 212 133 212 114 212 117 213 116 213 133 213 133 214 116 214 115 214 133 215 115 215 114 215 120 216 119 216 133 216 133 217 119 217 118 217 133 218 118 218 117 218 123 219 122 219 133 219 133 220 122 220 121 220 133 221 121 221 120 221 126 222 125 222 133 222 133 223 125 223 124 223 133 224 124 224 123 224 129 225 128 225 133 225 133 226 128 226 127 226 133 227 127 227 126 227 111 228 131 228 133 228 133 229 131 229 130 229 133 230 130 230 129 230 134 231 135 231 11 231 11 232 135 232 1 232 136 233 134 233 6 233 6 234 134 234 11 234 137 235 136 235 7 235 7 236 136 236 6 236 135 237 137 237 1 237 1 238 137 238 7 238 136 239 137 239 134 239 134 240 137 240 135 240 138 241 139 241 8 241 8 242 139 242 140 242 141 243 142 243 143 243 138 244 8 244 144 244 144 245 8 245 5 245 144 246 5 246 145 246 140 247 146 247 8 247 8 248 146 248 147 248 8 249 147 249 148 249 143 250 142 250 149 250 149 251 142 251 150 251 149 252 150 252 151 252 151 253 150 253 152 253 151 254 152 254 148 254 152 255 153 255 148 255 148 256 153 256 154 256 148 257 154 257 8 257 8 258 154 258 88 258 8 259 88 259 23 259 141 260 143 260 155 260 155 261 143 261 156 261 155 262 156 262 157 262 157 263 156 263 158 263 157 264 158 264 159 264 159 265 158 265 160 265 159 266 160 266 161 266 161 267 160 267 162 267 161 268 162 268 163 268 163 269 162 269 164 269 163 270 164 270 165 270 165 271 164 271 166 271 165 272 166 272 167 272 167 273 166 273 168 273 167 274 168 274 169 274 169 275 168 275 170 275 169 276 170 276 171 276 171 277 170 277 172 277 172 278 170 278 173 278 172 279 173 279 174 279 174 280 173 280 175 280 174 281 175 281 176 281 176 282 175 282 177 282 176 283 177 283 87 283 87 284 177 284 178 284 87 285 178 285 5 285 5 286 178 286 179 286 5 287 179 287 145 287 176 288 26 288 39 288 176 289 39 289 174 289 174 290 39 290 40 290 174 291 40 291 172 291 172 292 40 292 38 292 172 293 38 293 171 293 171 294 38 294 44 294 171 295 44 295 169 295 169 296 44 296 43 296 169 297 43 297 167 297 167 298 43 298 37 298 167 299 37 299 165 299 165 300 37 300 36 300 165 301 36 301 163 301 163 302 36 302 35 302 163 303 35 303 161 303 161 304 35 304 25 304 161 305 25 305 159 305 159 306 25 306 24 306 159 307 24 307 157 307 157 308 24 308 42 308 157 309 42 309 155 309 155 310 42 310 41 310 155 311 41 311 141 311 141 312 41 312 34 312 141 313 34 313 142 313 142 314 34 314 33 314 142 315 33 315 150 315 150 316 33 316 32 316 150 317 32 317 152 317 152 318 32 318 31 318 152 319 31 319 153 319 154 320 153 320 30 320 30 321 153 321 31 321 154 322 30 322 88 322 88 323 30 323 28 323 176 324 87 324 26 324 26 325 87 325 29 325 180 326 181 326 164 326 164 327 181 327 182 327 164 328 182 328 166 328 166 329 182 329 183 329 166 330 183 330 168 330 168 331 183 331 184 331 168 332 184 332 170 332 170 333 184 333 185 333 170 334 185 334 173 334 173 335 185 335 186 335 173 336 186 336 175 336 175 337 186 337 187 337 175 338 187 338 177 338 177 339 187 339 188 339 177 340 188 340 178 340 178 341 188 341 189 341 178 342 189 342 179 342 179 343 189 343 190 343 179 344 190 344 145 344 145 345 190 345 191 345 145 346 191 346 144 346 144 347 191 347 192 347 144 348 192 348 138 348 138 349 192 349 193 349 138 350 193 350 139 350 139 351 193 351 194 351 139 352 194 352 140 352 140 353 194 353 195 353 140 354 195 354 146 354 146 355 195 355 196 355 146 356 196 356 147 356 147 357 196 357 197 357 147 358 197 358 148 358 148 359 197 359 198 359 148 360 198 360 151 360 151 361 198 361 199 361 151 362 199 362 149 362 149 363 199 363 200 363 149 364 200 364 143 364 143 365 200 365 201 365 143 366 201 366 156 366 156 367 201 367 202 367 156 368 202 368 158 368 158 369 202 369 203 369 158 370 203 370 160 370 160 371 203 371 204 371 160 372 204 372 180 372 180 373 204 373 181 373 194 374 193 374 205 374 205 375 193 375 206 375 205 376 206 376 191 376 197 377 196 377 205 377 205 378 196 378 195 378 205 379 195 379 194 379 200 380 199 380 205 380 205 381 199 381 198 381 205 382 198 382 197 382 203 383 202 383 205 383 205 384 202 384 201 384 205 385 201 385 200 385 182 386 181 386 205 386 205 387 181 387 204 387 205 388 204 388 203 388 185 389 184 389 205 389 205 390 184 390 183 390 205 391 183 391 182 391 188 392 187 392 205 392 205 393 187 393 186 393 205 394 186 394 185 394 191 395 190 395 205 395 205 396 190 396 189 396 205 397 189 397 188 397</p>
        </triangles>
      </mesh>
    </geometry>
    </library_geometries>
  <library_visual_scenes>
    <visual_scene id="Scene" name="Scene">
      <node id="link_5" name="link_5" type="NODE">
        <matrix sid="transform">1 0 0 0 0 1 0 0 0 0 1 0 0 0 0 1</matrix>
        <instance_geometry url="#link_5-mesh" name="link_5" />
      </node>
      </visual_scene>
  </library_visual_scenes>
  <scene>
    <instance_visual_scene url="#Scene" />
  </scene>
</COLLADA>